<?xml version="1.0" encoding="UTF-8" standalone="no"?>
<!DOCTYPE svg PUBLIC "-//W3C//DTD SVG 1.1//EN" "http://www.w3.org/Graphics/SVG/1.1/DTD/svg11.dtd">
<svg version="1.1"
    xmlns="http://www.w3.org/2000/svg"
    xmlns:xlink="http://www.w3.org/1999/xlink" preserveAspectRatio="xMidYMid meet" viewBox="0 0 640 640" width="640" height="640">
    <defs>
        <path d="M24 24L24 392L338.86 392L430.29 488L438.29 488L438.29 392L488 392L488 24L24 24Z" id="b9vsUqgqv"></path>
        <path d="M240 272L272 272L272 304L240 304L240 272Z" id="i2LnwseiE"></path>
        <path d="M240 112L272 112L272 240L240 240L240 112Z" id="b5UJfxBMOt"></path>
        <path d="M272 8L272 40L472 40L472 376L422.29 376L422.29 456.4L345.72 376L40 376L40 40L240 40L240 8L8 8L8 408L332 408L423.43 504L454.29 504L454.29 408L504 408L504 8L272 8Z" id="e7jMP9iKIN"></path>
    </defs>
    <g>
        <g>
            <g>
                <use xlink:href="#b9vsUqgqv" opacity="1" fill="#2563eb" fill-opacity="1"></use>
                <g>
                    <use xlink:href="#b9vsUqgqv" opacity="1" fill-opacity="0" stroke="#000000" stroke-width="1" stroke-opacity="0"></use>
                </g>
            </g>
            <g>
                <use xlink:href="#i2LnwseiE" opacity="1" fill="#000000" fill-opacity="1"></use>
                <g>
                    <use xlink:href="#i2LnwseiE" opacity="1" fill-opacity="0" stroke="#000000" stroke-width="1" stroke-opacity="0"></use>
                </g>
            </g>
            <g>
                <use xlink:href="#b5UJfxBMOt" opacity="1" fill="#000000" fill-opacity="1"></use>
                <g>
                    <use xlink:href="#b5UJfxBMOt" opacity="1" fill-opacity="0" stroke="#000000" stroke-width="1" stroke-opacity="0"></use>
                </g>
            </g>
            <g>
                <use xlink:href="#e7jMP9iKIN" opacity="1" fill="#000000" fill-opacity="1"></use>
                <g>
                    <use xlink:href="#e7jMP9iKIN" opacity="1" fill-opacity="0" stroke="#000000" stroke-width="1" stroke-opacity="0"></use>
                </g>
            </g>
        </g>
    </g>
</svg>