<?xml version="1.0" encoding="UTF-8" standalone="no"?>
<!DOCTYPE svg PUBLIC "-//W3C//DTD SVG 1.1//EN" "http://www.w3.org/Graphics/SVG/1.1/DTD/svg11.dtd">
<svg version="1.1" xmlns="http://www.w3.org/2000/svg" xmlns:xlink="http://www.w3.org/1999/xlink" preserveAspectRatio="xMidYMid meet" viewBox="0 0 640 640" width="640" height="640"><defs><path d="M252.99 356.79C247.62 356.75 243.23 361.08 243.19 366.46C243.19 366.93 243.22 367.4 243.28 367.87C240.49 371.53 218.11 400.84 215.31 404.5C212.87 409.38 213.59 415.25 217.15 419.39C217.29 419.56 218.02 420.42 219.34 421.95L229.41 419.94L240.82 409.87L239.47 398.46L253.57 376.31C253.56 376.3 253.55 376.3 253.55 376.3C258.67 375.97 262.66 371.72 262.66 366.59C262.7 361.22 258.37 356.83 252.99 356.79Z" id="h4ae3EFPz"></path><path d="M64.67 528.71L127.9 503.03L134.64 528.06L69.23 545.67L69.23 545.67L64.67 528.71Z" id="f2Hfbxbt1L"></path><path d="M53.96 554.42L39.24 499.74C39.65 499.63 39.88 499.57 39.93 499.55C51.68 496.39 63.78 503.35 66.94 515.1C66.94 515.1 66.94 515.1 66.94 515.11L75.93 548.5L53.96 554.42Z" id="aTRirBlBD"></path><path d="M142.13 532.63L175.21 472.93L196.17 488.18L156.33 542.96L156.33 542.96L142.13 532.63Z" id="fj0iaukvA"></path><path d="M149.95 559.36L104.15 526.05C104.4 525.71 104.54 525.51 104.57 525.48C111.73 515.63 125.51 513.45 135.36 520.61C135.36 520.61 135.36 520.61 135.36 520.61L163.33 540.95L149.95 559.36Z" id="ebHGENbde"></path><path d="M277.06 459.54C255.62 438.71 243.7 427.13 241.32 424.82C234.87 418.55 224.8 417.99 217.69 423.5C213.19 428.5 190.7 453.48 150.21 498.46L156.25 507.86L220.68 464.23L264.31 521.28L305.92 500.48L277.06 459.54Z" id="c2dyEM18R"></path><path d="M261.62 466.92L235.45 464.91C224.07 462.15 217.75 460.62 216.49 460.31C213.59 455.78 207.57 454.47 203.04 457.37C198.51 460.27 197.19 466.29 200.1 470.82C203 475.35 209.02 476.67 213.55 473.76C213.93 473.52 214.3 473.24 214.64 472.95C214.64 472.95 214.64 472.95 214.64 472.96L226.05 477.66L275.05 494.44L281.09 489.74L261.62 466.92Z" id="a1CkDNuZzh"></path><path d="M309.95 548.8L292.5 548.8L211.29 518.6L92.49 540.08L89.13 514.57L197.86 466.92L293.17 498.46L324.71 539.41L324.71 539.41L309.95 548.8Z" id="dUoVXyvBn"></path><path d="M293.17 323.96C278.71 323.96 266.99 335.68 266.99 350.14C266.99 364.59 278.71 376.31 293.17 376.31C307.62 376.31 319.34 364.59 319.34 350.14C319.34 335.68 307.62 323.96 293.17 323.96Z" id="e5YiIfKc2"></path><path d="M353.52 501.16C353.39 501.56 352.74 503.57 351.56 507.19L342.16 550.14L332.1 552.83L324.71 543.43L309.95 532.69L299.21 515.24L290 499.9L287.13 495.11L277.06 444.77L238.8 423.29L226.05 421.28L228.74 413.9L240.15 398.46L251.56 397.12L254.91 394.43L257.6 395.78L272.4 401.48L320.38 381.2L327.4 382.35C341.9 394.43 349.95 401.14 351.56 402.49C357.74 419.18 360.9 436.84 360.9 454.64C360.9 470.44 358.41 486.14 353.52 501.16Z" id="l3XFKXetg"></path><path d="M328.07 465.58L290 499.9L287.13 495.11L279.07 454.84L281.09 454.84L301.89 416.58L353.57 448.8L353.57 448.8L328.07 465.58Z" id="bRrgCJInk"></path><path d="M281.09 450.81L269.01 464.24L258.27 466.92L287.13 498.46L328.07 461.55L353.57 444.77L301.89 412.55L301.89 412.55L281.09 450.81Z" id="arJHHBvwV"></path><path d="M269.97 331.76C268.16 330.54 267.69 328.08 268.91 326.27C268.91 326.27 268.91 326.27 268.91 326.27C268.93 326.24 268.94 326.22 268.96 326.2C265.82 326.05 264.07 325.97 263.72 325.95C276.84 308.48 301.65 304.94 319.13 318.07C320.42 319.03 321.64 320.08 322.8 321.19C323.04 320.37 325.64 321.97 326.7 323.59C327.06 322.25 329.5 328.72 330.36 333.29C330.76 331.77 332.3 334.22 330.95 336.58C331.8 336.45 332.19 338.63 331.53 339.85C332.46 339.41 332.3 342.01 331.29 343.75C332.62 343.64 331.18 371.04 311.21 369.05C309.82 362.66 310.21 363.06 308.57 354.84C307.81 354.03 306.98 353.3 306.15 352.56C305.69 352.16 302.09 348.98 301.64 348.58C296.4 343.96 291.63 338.25 284.66 336.52C279.86 335.34 276.83 335.07 279.44 329.66C277.08 330.65 274.87 332.11 272.49 333.03C272.52 332.27 272.86 331.43 272.81 330.67C272.24 330.89 270.26 331.66 269.97 331.76Z" id="d67NJuHns9"></path><path d="M306.26 348.46C303.66 348.46 301.56 350.56 301.56 353.16C301.56 355.75 303.66 357.85 306.26 357.85C308.85 357.85 310.95 355.75 310.95 353.16C310.95 350.56 308.85 348.46 306.26 348.46Z" id="b1GCOEZ8PG"></path><path d="M87.16 242.19C87.16 242.19 87.16 242.19 87.16 242.19C100.08 243.05 107.26 243.53 108.69 243.63C108.69 243.63 108.69 243.63 108.69 243.63C107.83 256.55 107.35 263.72 107.26 265.16C107.26 265.16 107.26 265.16 107.26 265.16C94.34 264.3 87.16 263.82 85.73 263.72C85.73 263.72 85.73 263.72 85.73 263.72C86.59 250.81 87.07 243.63 87.16 242.19Z" id="b5DmUECAzQ"></path><path d="M73.27 253.63L99.41 255.37L97.67 281.51L71.53 279.77L73.27 253.63ZM98.2 256.43L74.33 254.84L72.74 278.71L96.61 280.3L98.2 256.43Z" id="b1coXxuaaD"></path><path d="M208.82 178.36C208.82 178.36 208.82 178.36 208.82 178.36C211.54 191.01 213.05 198.04 213.36 199.45C213.36 199.45 213.36 199.45 213.36 199.45C200.7 202.17 193.67 203.68 192.26 203.98C192.26 203.98 192.26 203.98 192.26 203.98C189.54 191.33 188.03 184.29 187.73 182.89C187.73 182.89 187.73 182.89 187.73 182.89C200.39 180.17 207.42 178.66 208.82 178.36Z" id="f6ldkSEVDi"></path><path d="M194.02 168.14L199.52 193.75L173.91 199.26L168.4 173.64L194.02 168.14ZM198.17 192.88L193.14 169.49L169.76 174.52L174.78 197.9L198.17 192.88Z" id="c3ZtbdnXxX"></path><path d="M186.66 279.66C186.66 279.66 186.66 279.66 186.66 279.66C195.51 289.11 200.43 294.36 201.41 295.41C201.41 295.41 201.41 295.41 201.41 295.41C191.96 304.26 186.71 309.17 185.66 310.16C185.66 310.16 185.66 310.16 185.66 310.16C176.81 300.71 171.89 295.46 170.91 294.41C170.91 294.41 170.91 294.41 170.91 294.41C180.36 285.56 185.61 280.64 186.66 279.66Z" id="bUUKejOHu"></path><path d="M202.54 277.45L183.42 295.36L165.51 276.24L184.63 258.33L202.54 277.45ZM183.47 293.75L200.93 277.4L184.58 259.94L167.12 276.3L183.47 293.75Z" id="dAmgkX9Ns"></path><path d="M362.63 123.36C352.92 123.36 345.06 131.22 345.06 140.93C345.06 140.93 345.06 140.93 345.06 140.93C345.06 176.5 345.06 461.06 345.06 496.63C345.06 506.33 352.92 514.2 362.63 514.2C362.63 514.2 362.63 514.2 362.63 514.2C426.47 514.2 937.18 514.2 1001.01 514.2C1010.72 514.2 1018.58 506.33 1018.58 496.63C1018.58 461.06 1018.58 176.5 1018.58 140.93C1018.58 131.22 1010.72 123.36 1001.01 123.36C1001.01 123.36 426.47 123.36 362.63 123.36Z" id="bK8J1weu"></path><path d="M995.03 154.41C995.03 154.41 995.03 154.41 995.03 154.41C995.03 366.43 995.03 484.21 995.03 507.77C995.03 507.77 995.03 507.77 995.03 507.77C619.18 507.77 410.38 507.77 368.61 507.77C368.61 507.77 368.61 507.77 368.61 507.77C368.61 295.75 368.61 177.97 368.61 154.41C368.61 154.41 368.61 154.41 368.61 154.41C744.46 154.41 953.27 154.41 995.03 154.41Z" id="bJ2OUdQL"></path><path d="M681.29 131.92C677.74 131.92 674.86 134.8 674.86 138.35C674.86 141.9 677.74 144.77 681.29 144.77C684.83 144.77 687.71 141.9 687.71 138.35C687.71 134.8 684.83 131.92 681.29 131.92Z" id="aIGUH9s7E"></path><path d="M368.61 507.77L368.61 154.41L815.88 507.77L815.88 507.77L368.61 507.77Z" id="g2R0rzRws"></path><path d="M466.63 360.9C433.37 360.9 406.42 387.86 406.42 421.12C406.42 454.37 433.37 481.33 466.63 481.33C499.88 481.33 526.84 454.37 526.84 421.12C526.84 387.86 499.88 360.9 466.63 360.9Z" id="b5ltoiLQua"></path><path d="M405.13 391.47C405.13 350.11 438.67 316.57 480.03 316.57C521.4 316.57 554.93 350.11 554.93 391.47C554.93 432.84 521.4 466.37 480.03 466.37C480.03 466.37 480.03 466.37 480.03 466.37C438.67 466.37 405.13 432.84 405.13 391.47ZM406.11 391.47C406.11 432.3 439.21 465.39 480.03 465.39C520.86 465.39 553.95 432.3 553.95 391.47C553.95 350.65 520.86 317.55 480.03 317.55C480.03 317.55 480.03 317.55 480.03 317.55C439.21 317.55 406.11 350.65 406.11 391.47Z" id="cQ9ZdLN0x"></path><path d="M850.01 337.99C850.01 337.99 850.01 337.99 850.01 337.99C850.01 345.33 850.01 349.4 850.01 350.22C850.01 350.22 850.01 350.22 850.01 350.22C814.91 350.22 795.4 350.22 791.5 350.22C791.5 350.22 791.5 350.22 791.5 350.22C791.5 342.88 791.5 338.81 791.5 337.99C791.5 337.99 791.5 337.99 791.5 337.99C826.61 337.99 846.11 337.99 850.01 337.99Z" id="j12X8lRdgj"></path><path d="M905.37 271.75C905.37 271.75 905.37 271.75 905.37 271.75C905.37 274.9 905.37 276.64 905.37 276.99C905.37 276.99 905.37 276.99 905.37 276.99C803.83 276.99 747.42 276.99 736.14 276.99C736.14 276.99 736.14 276.99 736.14 276.99C736.14 273.85 736.14 272.1 736.14 271.75C736.14 271.75 736.14 271.75 736.14 271.75C837.68 271.75 894.09 271.75 905.37 271.75Z" id="k23qrYuym4"></path><path d="M905.37 292.34C905.37 292.34 905.37 292.34 905.37 292.34C905.37 295.48 905.37 297.23 905.37 297.58C905.37 297.58 905.37 297.58 905.37 297.58C803.83 297.58 747.42 297.58 736.14 297.58C736.14 297.58 736.14 297.58 736.14 297.58C736.14 294.44 736.14 292.69 736.14 292.34C736.14 292.34 736.14 292.34 736.14 292.34C837.68 292.34 894.09 292.34 905.37 292.34Z" id="a1ip89wY0A"></path><path d="M905.37 312.93C905.37 312.93 905.37 312.93 905.37 312.93C905.37 316.07 905.37 317.82 905.37 318.17C905.37 318.17 905.37 318.17 905.37 318.17C803.83 318.17 747.42 318.17 736.14 318.17C736.14 318.17 736.14 318.17 736.14 318.17C736.14 315.02 736.14 313.28 736.14 312.93C736.14 312.93 736.14 312.93 736.14 312.93C837.68 312.93 894.09 312.93 905.37 312.93Z" id="b1LX48F9ea"></path><path d="M950.71 175.56C950.71 175.56 950.71 175.56 950.71 175.56C950.71 190.23 950.71 198.38 950.71 200.01C950.71 200.01 950.71 200.01 950.71 200.01C936.04 200.01 927.89 200.01 926.25 200.01C926.25 200.01 926.25 200.01 926.25 200.01C926.25 185.34 926.25 177.19 926.25 175.56C926.25 175.56 926.25 175.56 926.25 175.56C940.93 175.56 949.08 175.56 950.71 175.56Z" id="b9AdgKDho"></path><path d="M962.06 211.36L932.37 211.36L932.37 181.67L962.06 181.67L962.06 211.36ZM933.66 210.07L960.77 210.07L960.77 182.96L933.66 182.96L933.66 210.07Z" id="bzGI10g6e"></path><path d="M975.04 501.35C975.04 498.7 975.04 497.24 975.04 496.94C975.04 496.46 974.65 496.07 974.17 496.07C974.17 496.07 974.17 496.07 974.17 496.07C972.07 496.07 955.3 496.07 953.21 496.07C952.72 496.07 952.33 496.46 952.33 496.94C952.33 496.94 952.33 496.94 952.33 496.94C952.33 497.24 952.33 498.7 952.33 501.35L939.23 501.35C939.23 498.7 939.23 497.24 939.23 496.94C939.23 496.46 938.84 496.07 938.36 496.07C938.36 496.07 938.36 496.07 938.36 496.07C936.26 496.07 919.49 496.07 917.4 496.07C916.92 496.07 916.53 496.46 916.53 496.94C916.53 496.94 916.53 496.94 916.53 496.94C916.53 496.94 916.53 496.94 916.53 496.94L916.53 501.35L903.43 501.35C903.43 498.7 903.43 497.24 903.43 496.94C903.43 496.46 903.03 496.07 902.55 496.07C902.55 496.07 902.55 496.07 902.55 496.07C900.46 496.07 883.69 496.07 881.59 496.07C881.11 496.07 880.72 496.46 880.72 496.94C880.72 496.94 880.72 496.94 880.72 496.94C880.72 496.94 880.72 496.94 880.72 496.94L880.72 501.35L867.62 501.35C867.62 498.7 867.62 497.24 867.62 496.94C867.62 496.46 867.23 496.07 866.74 496.07C866.74 496.07 866.74 496.07 866.74 496.07C864.65 496.07 847.88 496.07 845.78 496.07C845.3 496.07 844.91 496.46 844.91 496.94C844.91 496.94 844.91 496.94 844.91 496.94C844.91 497.24 844.91 498.7 844.91 501.35L831.81 501.35C831.81 498.7 831.81 497.24 831.81 496.94C831.81 496.46 831.42 496.07 830.94 496.07C830.94 496.07 830.94 496.07 830.94 496.07C828.84 496.07 812.07 496.07 809.98 496.07C809.5 496.07 809.1 496.46 809.1 496.94C809.1 496.94 809.1 496.94 809.1 496.94C809.1 496.94 809.1 496.94 809.1 496.94L809.1 501.35L796 501.35C796 498.7 796 497.24 796 496.94C796 496.46 795.61 496.07 795.13 496.07C795.13 496.07 795.13 496.07 795.13 496.07C793.04 496.07 776.27 496.07 774.17 496.07C773.69 496.07 773.3 496.46 773.3 496.94C773.3 496.94 773.3 496.94 773.3 496.94C773.3 496.94 773.3 496.94 773.3 496.94L773.3 501.35L760.2 501.35C760.2 498.7 760.2 497.24 760.2 496.94C760.2 496.46 759.81 496.07 759.32 496.07C759.32 496.07 759.32 496.07 759.32 496.07C742.91 496.07 611.56 496.07 595.14 496.07C594.65 496.07 594.26 496.46 594.26 496.94C594.26 496.94 594.26 496.94 594.26 496.94C594.26 496.94 594.26 496.94 594.26 496.94L594.26 501.35L581.16 501.35C581.16 498.7 581.16 497.24 581.16 496.94C581.16 496.46 580.77 496.07 580.29 496.07C580.29 496.07 580.29 496.07 580.29 496.07C578.19 496.07 561.43 496.07 559.33 496.07C558.85 496.07 558.46 496.46 558.46 496.94C558.46 496.94 558.46 496.94 558.46 496.94C558.46 496.94 558.46 496.94 558.46 496.94L558.46 501.35L545.36 501.35C545.36 498.7 545.36 497.24 545.36 496.94C545.36 496.46 544.96 496.07 544.48 496.07C544.48 496.07 544.48 496.07 544.48 496.07C542.39 496.07 525.62 496.07 523.52 496.07C523.04 496.07 522.65 496.46 522.65 496.94C522.65 496.94 522.65 496.94 522.65 496.94C522.65 496.94 522.65 496.94 522.65 496.94L522.65 501.35L509.55 501.35C509.55 498.7 509.55 497.24 509.55 496.94C509.55 496.46 509.16 496.07 508.68 496.07C508.68 496.07 508.68 496.07 508.68 496.07C506.58 496.07 489.81 496.07 487.72 496.07C487.23 496.07 486.84 496.46 486.84 496.94C486.84 496.94 486.84 496.94 486.84 496.94C486.84 496.94 486.84 496.94 486.84 496.94L486.84 501.35L473.74 501.35C473.74 498.7 473.74 497.24 473.74 496.94C473.74 496.46 473.35 496.07 472.87 496.07C472.87 496.07 472.87 496.07 472.87 496.07C470.77 496.07 454 496.07 451.91 496.07C451.43 496.07 451.04 496.46 451.04 496.94C451.04 496.94 451.04 496.94 451.04 496.94C451.04 496.94 451.04 496.94 451.04 496.94L451.04 501.35L437.94 501.35C437.94 498.7 437.94 497.24 437.94 496.94C437.94 496.46 437.54 496.07 437.06 496.07C437.06 496.07 437.06 496.07 437.06 496.07C434.97 496.07 418.2 496.07 416.1 496.07C415.62 496.07 415.23 496.46 415.23 496.94C415.23 497.24 415.23 498.7 415.23 501.35L402.13 501.35C402.13 498.7 402.13 497.24 402.13 496.94C402.13 496.46 401.74 496.07 401.25 496.07C401.25 496.07 401.25 496.07 401.25 496.07C399.16 496.07 382.39 496.07 380.29 496.07C379.81 496.07 379.42 496.46 379.42 496.94C379.42 496.94 379.42 496.94 379.42 496.94L379.42 501.35C355.32 501.35 341.93 501.35 339.25 501.35C327.67 501.35 318.29 510.73 318.29 522.31C318.29 523.25 318.29 530.84 318.29 531.78C318.29 543.36 327.67 552.74 339.25 552.74C408.94 552.74 966.48 552.74 1036.17 552.74C1047.75 552.74 1057.13 543.36 1057.13 531.78C1057.13 530.84 1057.13 523.25 1057.13 522.31C1057.13 510.73 1047.75 501.35 1036.17 501.35C1036.17 501.35 1036.17 501.35 1036.17 501.35C1036.17 501.35 1015.79 501.35 975.04 501.35Z" id="c1ydUsXlSw"></path></defs><g><g><g><use xlink:href="#h4ae3EFPz" opacity="1" fill="#ffb9b9" fill-opacity="1"></use><g><use xlink:href="#h4ae3EFPz" opacity="1" fill-opacity="0" stroke="#000000" stroke-width="1" stroke-opacity="0"></use></g></g><g><use xlink:href="#f2Hfbxbt1L" opacity="1" fill="#ffb8b8" fill-opacity="1"></use><g><use xlink:href="#f2Hfbxbt1L" opacity="1" fill-opacity="0" stroke="#000000" stroke-width="1" stroke-opacity="0"></use></g></g><g><use xlink:href="#aTRirBlBD" opacity="1" fill="#2f2e41" fill-opacity="1"></use><g><use xlink:href="#aTRirBlBD" opacity="1" fill-opacity="0" stroke="#000000" stroke-width="1" stroke-opacity="0"></use></g></g><g><use xlink:href="#fj0iaukvA" opacity="1" fill="#ffb8b8" fill-opacity="1"></use><g><use xlink:href="#fj0iaukvA" opacity="1" fill-opacity="0" stroke="#000000" stroke-width="1" stroke-opacity="0"></use></g></g><g><use xlink:href="#ebHGENbde" opacity="1" fill="#2f2e41" fill-opacity="1"></use><g><use xlink:href="#ebHGENbde" opacity="1" fill-opacity="0" stroke="#000000" stroke-width="1" stroke-opacity="0"></use></g></g><g><use xlink:href="#c2dyEM18R" opacity="1" fill="#2f2e41" fill-opacity="1"></use><g><use xlink:href="#c2dyEM18R" opacity="1" fill-opacity="0" stroke="#000000" stroke-width="1" stroke-opacity="0"></use></g></g><g><use xlink:href="#a1CkDNuZzh" opacity="1" fill="#ffb9b9" fill-opacity="1"></use><g><use xlink:href="#a1CkDNuZzh" opacity="1" fill-opacity="0" stroke="#000000" stroke-width="1" stroke-opacity="0"></use></g></g><g><use xlink:href="#dUoVXyvBn" opacity="1" fill="#2f2e41" fill-opacity="1"></use><g><use xlink:href="#dUoVXyvBn" opacity="1" fill-opacity="0" stroke="#000000" stroke-width="1" stroke-opacity="0"></use></g></g><g><use xlink:href="#e5YiIfKc2" opacity="1" fill="#ffb9b9" fill-opacity="1"></use><g><use xlink:href="#e5YiIfKc2" opacity="1" fill-opacity="0" stroke="#000000" stroke-width="1" stroke-opacity="0"></use></g></g><g><use xlink:href="#l3XFKXetg" opacity="1" fill="#cccccc" fill-opacity="1"></use><g><use xlink:href="#l3XFKXetg" opacity="1" fill-opacity="0" stroke="#000000" stroke-width="1" stroke-opacity="0"></use></g></g><g><use xlink:href="#bRrgCJInk" opacity="1" fill="#000000" fill-opacity="1"></use><g><use xlink:href="#bRrgCJInk" opacity="1" fill-opacity="0" stroke="#000000" stroke-width="1" stroke-opacity="0"></use></g></g><g><use xlink:href="#arJHHBvwV" opacity="1" fill="#cccccc" fill-opacity="1"></use><g><use xlink:href="#arJHHBvwV" opacity="1" fill-opacity="0" stroke="#000000" stroke-width="1" stroke-opacity="0"></use></g></g><g><use xlink:href="#d67NJuHns9" opacity="1" fill="#2f2e41" fill-opacity="1"></use><g><use xlink:href="#d67NJuHns9" opacity="1" fill-opacity="0" stroke="#000000" stroke-width="1" stroke-opacity="0"></use></g></g><g><use xlink:href="#b1GCOEZ8PG" opacity="1" fill="#ffb9b9" fill-opacity="1"></use><g><use xlink:href="#b1GCOEZ8PG" opacity="1" fill-opacity="0" stroke="#000000" stroke-width="1" stroke-opacity="0"></use></g></g><g><use xlink:href="#b5DmUECAzQ" opacity="1" fill="#e6e6e6" fill-opacity="1"></use><g><use xlink:href="#b5DmUECAzQ" opacity="1" fill-opacity="0" stroke="#000000" stroke-width="1" stroke-opacity="0"></use></g></g><g><use xlink:href="#b1coXxuaaD" opacity="1" fill="#cccccc" fill-opacity="1"></use><g><use xlink:href="#b1coXxuaaD" opacity="1" fill-opacity="0" stroke="#000000" stroke-width="1" stroke-opacity="0"></use></g></g><g><use xlink:href="#f6ldkSEVDi" opacity="1" fill="#e6e6e6" fill-opacity="1"></use><g><use xlink:href="#f6ldkSEVDi" opacity="1" fill-opacity="0" stroke="#000000" stroke-width="1" stroke-opacity="0"></use></g></g><g><use xlink:href="#c3ZtbdnXxX" opacity="1" fill="#cccccc" fill-opacity="1"></use><g><use xlink:href="#c3ZtbdnXxX" opacity="1" fill-opacity="0" stroke="#000000" stroke-width="1" stroke-opacity="0"></use></g></g><g><use xlink:href="#bUUKejOHu" opacity="1" fill="#e6e6e6" fill-opacity="1"></use><g><use xlink:href="#bUUKejOHu" opacity="1" fill-opacity="0" stroke="#000000" stroke-width="1" stroke-opacity="0"></use></g></g><g><use xlink:href="#dAmgkX9Ns" opacity="1" fill="#cccccc" fill-opacity="1"></use><g><use xlink:href="#dAmgkX9Ns" opacity="1" fill-opacity="0" stroke="#000000" stroke-width="1" stroke-opacity="0"></use></g></g><g><use xlink:href="#bK8J1weu" opacity="1" fill="#3f3d56" fill-opacity="1"></use><g><use xlink:href="#bK8J1weu" opacity="1" fill-opacity="0" stroke="#000000" stroke-width="1" stroke-opacity="0"></use></g></g><g><use xlink:href="#bJ2OUdQL" opacity="1" fill="#ffffff" fill-opacity="1"></use><g><use xlink:href="#bJ2OUdQL" opacity="1" fill-opacity="0" stroke="#000000" stroke-width="1" stroke-opacity="0"></use></g></g><g><use xlink:href="#aIGUH9s7E" opacity="1" fill="#ffffff" fill-opacity="1"></use><g><use xlink:href="#aIGUH9s7E" opacity="1" fill-opacity="0" stroke="#000000" stroke-width="1" stroke-opacity="0"></use></g></g><g><use xlink:href="#g2R0rzRws" opacity="1" fill="#f2f2f2" fill-opacity="1"></use><g><use xlink:href="#g2R0rzRws" opacity="1" fill-opacity="0" stroke="#000000" stroke-width="1" stroke-opacity="0"></use></g></g><g><use xlink:href="#b5ltoiLQua" opacity="1" fill="#2563eb" fill-opacity="1"></use><g><use xlink:href="#b5ltoiLQua" opacity="1" fill-opacity="0" stroke="#000000" stroke-width="1" stroke-opacity="0"></use></g></g><g><use xlink:href="#cQ9ZdLN0x" opacity="1" fill="#3f3d56" fill-opacity="1"></use><g><use xlink:href="#cQ9ZdLN0x" opacity="1" fill-opacity="0" stroke="#000000" stroke-width="1" stroke-opacity="0"></use></g></g><g><use xlink:href="#j12X8lRdgj" opacity="1" fill="#3f3d56" fill-opacity="1"></use><g><use xlink:href="#j12X8lRdgj" opacity="1" fill-opacity="0" stroke="#000000" stroke-width="1" stroke-opacity="0"></use></g></g><g><use xlink:href="#k23qrYuym4" opacity="1" fill="#3f3d56" fill-opacity="1"></use><g><use xlink:href="#k23qrYuym4" opacity="1" fill-opacity="0" stroke="#000000" stroke-width="1" stroke-opacity="0"></use></g></g><g><use xlink:href="#a1ip89wY0A" opacity="1" fill="#3f3d56" fill-opacity="1"></use><g><use xlink:href="#a1ip89wY0A" opacity="1" fill-opacity="0" stroke="#000000" stroke-width="1" stroke-opacity="0"></use></g></g><g><use xlink:href="#b1LX48F9ea" opacity="1" fill="#3f3d56" fill-opacity="1"></use><g><use xlink:href="#b1LX48F9ea" opacity="1" fill-opacity="0" stroke="#000000" stroke-width="1" stroke-opacity="0"></use></g></g><g><use xlink:href="#b9AdgKDho" opacity="1" fill="#6c63ff" fill-opacity="1"></use><g><use xlink:href="#b9AdgKDho" opacity="1" fill-opacity="0" stroke="#000000" stroke-width="1" stroke-opacity="0"></use></g></g><g><use xlink:href="#bzGI10g6e" opacity="1" fill="#cccccc" fill-opacity="1"></use><g><use xlink:href="#bzGI10g6e" opacity="1" fill-opacity="0" stroke="#000000" stroke-width="1" stroke-opacity="0"></use></g></g><g><use xlink:href="#c1ydUsXlSw" opacity="1" fill="#3f3d56" fill-opacity="1"></use><g><use xlink:href="#c1ydUsXlSw" opacity="1" fill-opacity="0" stroke="#000000" stroke-width="1" stroke-opacity="0"></use></g></g></g></g></svg>