<?xml version="1.0" encoding="UTF-8" standalone="no"?>
<!DOCTYPE svg PUBLIC "-//W3C//DTD SVG 1.1//EN" "http://www.w3.org/Graphics/SVG/1.1/DTD/svg11.dtd">
<svg version="1.1" xmlns="http://www.w3.org/2000/svg" xmlns:xlink="http://www.w3.org/1999/xlink" preserveAspectRatio="xMidYMid meet" viewBox="0 0 640 640" width="640" height="640"><defs><path d="M168.25 221.15C177.9 221.14 185.72 213.32 185.73 203.67C185.73 186.48 185.73 48.9 185.73 31.71C185.73 24.49 179.88 18.64 172.66 18.63C142.65 18.63 -97.46 18.63 -127.47 18.63C-134.8 18.64 -140.74 24.58 -140.75 31.91C-140.75 49.09 -140.75 186.5 -140.75 203.67C-140.74 213.32 -132.92 221.14 -123.27 221.15C-123.27 221.15 139.1 221.15 168.25 221.15Z" id="e148L17qc7"></path><path d="M168.25 221.15C177.9 221.14 185.72 213.32 185.73 203.67C185.73 186.48 185.73 48.9 185.73 31.71C185.73 24.49 179.88 18.64 172.66 18.63C142.65 18.63 -97.46 18.63 -127.47 18.63C-134.8 18.64 -140.74 24.58 -140.75 31.91C-140.75 49.09 -140.75 186.5 -140.75 203.67C-140.74 213.32 -132.92 221.14 -123.27 221.15C-123.27 221.15 139.1 221.15 168.25 221.15ZM172.66 20.63C178.78 20.64 183.73 25.59 183.74 31.71C183.74 48.9 183.74 186.48 183.74 203.67C183.73 212.22 176.8 219.15 168.25 219.16C139.1 219.16 -94.12 219.16 -123.27 219.16C-131.82 219.15 -138.74 212.22 -138.75 203.67C-138.75 186.5 -138.75 49.09 -138.75 31.91C-138.75 25.68 -133.7 20.64 -127.47 20.63C-67.44 20.63 112.64 20.63 172.66 20.63Z" id="e2CCync5b"></path><path d="M-107.29 203.67C-116.11 203.67 -123.27 196.52 -123.27 187.69C-123.27 175.15 -123.27 74.82 -123.27 62.28C-123.27 53.45 -116.11 46.3 -107.29 46.3C-81.33 46.3 126.32 46.3 152.27 46.3C161.1 46.3 168.25 53.45 168.25 62.28C168.25 74.82 168.25 175.15 168.25 187.69C168.25 196.52 161.1 203.67 152.27 203.67C100.36 203.67 -81.33 203.67 -107.29 203.67Z" id="biX3z2FR5"></path><path d="M-141.19 30.76L186.46 30.76C186.46 25.73 186.46 22.93 186.46 22.37C186.39 13.19 178.91 5.8 169.73 5.84C140.31 5.84 -95.04 5.84 -124.46 5.84C-133.64 5.8 -141.12 13.19 -141.19 22.37C-141.19 23.49 -141.19 26.29 -141.19 30.76Z" id="c3hNQryGV3"></path><path d="M154.9 14.05C157.27 14.05 159.18 15.96 159.18 18.33C159.18 20.69 157.27 22.6 154.9 22.6C152.54 22.6 150.63 20.69 150.63 18.33C150.63 15.96 152.54 14.05 154.9 14.05Z" id="e1hmaZ2aPH"></path><path d="M138.66 14.05C141.03 14.05 142.94 15.96 142.94 18.33C142.94 20.69 141.03 22.6 138.66 22.6C136.3 22.6 134.38 20.69 134.38 18.33C134.38 15.96 136.3 14.05 138.66 14.05Z" id="aDfOWGGyW"></path><path d="M122.42 14.05C124.78 14.05 126.7 15.96 126.7 18.33C126.7 20.69 124.78 22.6 122.42 22.6C120.06 22.6 118.14 20.69 118.14 18.33C118.14 15.96 120.06 14.05 122.42 14.05Z" id="baEtycTV7"></path><path d="M139.04 124.98C139.04 106.78 124.28 92.02 106.07 92.02C87.87 92.02 73.11 106.78 73.11 124.98C73.13 143.18 87.87 157.93 106.07 157.95C124.28 157.95 139.04 143.19 139.04 124.98Z" id="h5vyOnujc"></path><path d="M41.52 151.96C45.79 152.01 49.39 148.77 49.77 144.51C50.07 140.1 46.74 136.29 42.33 135.99C42.16 135.98 41.98 135.97 41.8 135.97C29.05 135.97 -72.99 135.97 -85.74 135.97C-90.04 135.91 -93.66 139.17 -94.04 143.45C-94.31 147.86 -90.97 151.66 -86.56 151.94C-86.39 151.95 -86.23 151.96 -86.06 151.96C-60.54 151.96 28.76 151.96 41.52 151.96Z" id="eTcIsnq4x"></path><path d="M41.52 117.99C45.79 118.05 49.39 114.81 49.77 110.55C50.07 106.14 46.74 102.33 42.33 102.03C42.16 102.02 41.98 102.01 41.8 102.01C35.74 102.01 -12.75 102.01 -18.82 102.01C-23.11 101.95 -26.73 105.21 -27.11 109.49C-27.39 113.9 -24.04 117.7 -19.63 117.98C-19.46 117.99 -19.3 117.99 -19.13 117.99C-7 117.99 35.45 117.99 41.52 117.99Z" id="a1h5l7Bc5S"></path><path d="M-266.97 444.93C-266.42 444.73 -265.84 444.58 -265.26 444.48C-264.86 442.14 -262.85 430.41 -259.24 409.3L-245.7 421.98C-250.37 440.86 -252.97 451.35 -253.49 453.45C-252.94 459 -257 463.94 -262.55 464.49C-267.2 464.95 -271.55 462.16 -273.08 457.75C-274.94 452.52 -272.2 446.78 -266.97 444.93Z" id="b3aYkthfIk"></path><path d="M-250.79 444.41C-249.48 444.75 -248.13 443.98 -247.75 442.67C-246.16 437.03 -238.2 408.82 -223.87 358.03C-219.54 345.08 -217.13 337.88 -216.65 336.44C-214.37 329.63 -218.05 322.26 -224.86 319.98C-226.69 319.37 -228.63 319.18 -230.54 319.41C-230.54 319.41 -230.54 319.41 -230.54 319.41C-235.69 320.03 -239.98 323.65 -241.45 328.63C-242.73 332.93 -249.09 354.44 -260.54 393.15C-263.78 420.18 -265.57 435.2 -265.93 438.21C-266.05 439.23 -265.53 440.23 -264.62 440.71C-264.45 440.8 -264.27 440.87 -264.09 440.92C-261.43 441.62 -252.12 444.06 -250.79 444.41Z" id="dthf2UfOD"></path><path d="M-215.5 256.06C-201.95 256.06 -190.97 267.04 -190.97 280.59C-190.97 294.15 -201.95 305.13 -215.5 305.13C-229.05 305.13 -240.04 294.15 -240.04 280.59C-240.04 267.04 -229.05 256.06 -215.5 256.06Z" id="b2QYVtDaCV"></path><path d="M-131.53 612.74L-139.41 565.8L-156.74 570.95L-143.26 616.23L-143.26 616.23L-131.53 612.74Z" id="b3kcAETPB7"></path><path d="M-142.87 628.5L-105.02 617.24C-105.11 616.95 -105.16 616.79 -105.17 616.76C-107.59 608.62 -116.14 603.99 -124.28 606.41C-124.28 606.41 -124.28 606.41 -124.28 606.41C-124.28 606.41 -124.28 606.41 -124.28 606.41L-147.4 613.29L-142.87 628.5Z" id="b41RMI2N8w"></path><path d="M-259.62 615.63L-253.79 568.39L-265.87 568.39L-271.86 615.63L-271.86 615.63L-259.62 615.63Z" id="bizg0uO5U"></path><path d="M-274.99 627.5L-235.5 627.5C-235.5 627.2 -235.5 627.03 -235.5 627C-235.5 618.51 -242.38 611.63 -250.87 611.63C-250.87 611.63 -250.87 611.63 -250.87 611.63C-250.87 611.63 -250.87 611.63 -250.87 611.63L-274.99 611.63L-274.99 627.5Z" id="a3qdxZgTF"></path><path d="M-135.48 602.34C-133 602.34 -130.99 600.33 -130.99 597.84C-130.99 597.57 -131.01 597.3 -131.06 597.03C-123.22 593.55 -165.44 391.07 -175.42 395C-175.44 394.96 -175.55 394.81 -175.74 394.52C-205.88 396.98 -222.63 398.35 -225.98 398.62C-248.48 443.65 -262.72 518.17 -276.05 595.95C-276.66 598.36 -275.2 600.81 -272.8 601.42C-272.5 601.49 -272.21 601.53 -271.91 601.55C-270.53 601.62 -259.47 602.15 -258.09 602.22C-256.17 602.32 -254.41 601.18 -253.7 599.4C-248.41 586.17 -206.06 480.31 -200.77 467.07C-200.55 466.48 -199.97 466.1 -199.34 466.13C-198.71 466.14 -198.16 466.54 -197.96 467.14C-193.37 480.36 -156.62 586.1 -152.03 599.32C-151.4 601.13 -149.69 602.34 -147.78 602.34C-145.32 602.34 -136.71 602.34 -135.48 602.34Z" id="b2h4B8MGyM"></path><path d="M-227.03 402.59L-226.65 402.56L-173.16 398.52C-178.79 362.72 -181.92 342.83 -182.54 338.86C-184.66 325.18 -195.52 314.52 -209.24 312.67C-209.24 312.67 -209.24 312.67 -209.24 312.67C-209.85 312.58 -210.35 312.52 -210.48 312.5C-221.15 311.1 -231.78 315.35 -238.53 323.73C-245.45 332.15 -247.48 343.57 -243.88 353.86C-241.63 360.36 -236.02 376.6 -227.03 402.59Z" id="bRKPUY6OE"></path><path d="M-263.14 308.66C-246.27 316.38 -223.38 315 -197.21 308.66C-200.84 298.74 -203.66 289.16 -200.46 282.13C-197.84 276.76 -197.59 270.55 -199.75 264.98C-204.88 252.71 -216.88 244.73 -230.18 244.73C-230.18 244.73 -230.18 244.73 -230.18 244.73C-248.38 244.73 -263.14 259.49 -263.14 277.69C-263.14 283.89 -263.14 302.47 -263.14 308.66Z" id="g3BY8uOgrv"></path><path d="M-227.18 246.97L-227.18 272.77L-183.23 272.77C-183.23 271.08 -183.23 270.13 -183.23 269.95C-183.23 257.26 -193.52 246.97 -206.2 246.97C-206.2 246.97 -213.2 246.97 -227.18 246.97Z" id="a4pLUTWv2q"></path><path d="M-172.62 449.11C-172.22 448.67 -171.78 448.27 -171.31 447.91C-172.06 445.65 -175.78 434.35 -182.48 414.01L-164.58 418.86C-159.86 437.74 -157.24 448.22 -156.72 450.32C-153.63 454.96 -154.9 461.23 -159.55 464.32C-163.44 466.9 -168.59 466.48 -172.01 463.3C-176.1 459.55 -176.37 453.2 -172.62 449.11Z" id="k13ITb6sst"></path><path d="M-158.57 441.07C-157.25 440.75 -156.42 439.44 -156.7 438.11C-157.94 432.38 -164.12 403.72 -175.26 352.15C-177.51 338.67 -178.75 331.19 -179 329.69C-180.18 322.6 -186.88 317.82 -193.97 319C-195.87 319.32 -197.68 320.05 -199.26 321.15C-199.26 321.15 -199.26 321.15 -199.26 321.15C-203.52 324.11 -205.61 329.33 -204.58 334.41C-203.69 338.81 -199.23 360.79 -191.2 400.36C-181.39 425.75 -175.94 439.86 -174.85 442.68C-174.47 443.65 -173.55 444.28 -172.51 444.28C-172.32 444.28 -172.13 444.26 -171.95 444.21C-169.27 443.59 -159.91 441.38 -158.57 441.07Z" id="btWyAdREC"></path><path d="M352.87 390.9C355.65 389.11 369.52 380.16 394.5 364.05L393.93 352.03L411.96 348.79C413.81 361.5 414.83 368.56 415.04 369.97C415.55 373.49 413.68 376.92 410.45 378.39C405.32 380.73 364.31 399.46 359.18 401.8C358.49 407.55 353.26 411.65 347.51 410.95C341.76 410.26 337.67 405.04 338.36 399.29C339.05 393.54 344.28 389.44 350.03 390.13C350.46 390.18 350.88 390.26 351.3 390.37C351.84 390.51 352.36 390.68 352.87 390.9Z" id="a6z1eETLIe"></path><path d="M418.52 359.19C420.97 358.74 422.58 356.39 422.13 353.95C422.09 353.73 422.03 353.52 421.96 353.31C421.23 351.17 415.37 334.04 414.64 331.9C413.35 325.12 406.81 320.68 400.04 321.97C393.29 323.25 388.85 329.75 390.1 336.5C390.18 338.76 390.81 356.79 390.89 359.05C390.98 361.53 393.06 363.47 395.54 363.38C395.76 363.37 395.98 363.35 396.2 363.31C396.2 363.31 416.29 359.6 418.52 359.19Z" id="a1zPBKgTij"></path><path d="M342.02 301.21C345.3 301.21 348.52 302.06 351.37 303.68C352.05 304.07 352.71 304.5 353.34 304.97C358.16 308.54 361 314.19 361 320.19C361 339.97 361 498.2 361 517.98C360.99 528.46 352.5 536.95 342.02 536.96C303.96 536.96 -0.51 536.96 -38.57 536.96C-49.05 536.95 -57.54 528.46 -57.55 517.98C-57.55 498.2 -57.55 339.97 -57.55 320.19C-57.54 309.72 -49.05 301.22 -38.57 301.21C-38.57 301.21 303.96 301.21 342.02 301.21Z" id="a1xVd6qOvx"></path><path d="M342.02 301.21C345.3 301.21 348.52 302.06 351.37 303.68C352.05 304.07 352.71 304.5 353.34 304.97C358.16 308.54 361 314.19 361 320.19C361 339.97 361 498.2 361 517.98C360.99 528.46 352.5 536.95 342.02 536.96C303.96 536.96 -0.51 536.96 -38.57 536.96C-49.05 536.95 -57.54 528.46 -57.55 517.98C-57.55 498.2 -57.55 339.97 -57.55 320.19C-57.54 309.72 -49.05 301.22 -38.57 301.21C-38.57 301.21 303.96 301.21 342.02 301.21ZM-55.55 517.98C-55.54 527.35 -47.94 534.95 -38.57 534.96C-0.51 534.96 303.96 534.96 342.02 534.96C351.39 534.95 358.99 527.35 359 517.98C359 498.2 359 339.97 359 320.19C358.97 312.83 354.23 306.32 347.23 304.03C347.09 303.99 346.96 303.94 346.82 303.9C345.26 303.44 343.64 303.21 342.02 303.21C303.96 303.21 -0.51 303.21 -38.57 303.21C-47.94 303.22 -55.54 310.82 -55.55 320.19C-55.55 359.75 -55.55 478.42 -55.55 517.98Z" id="a1jucJwKhg"></path><path d="M156.47 417.88C176.36 406.94 335.42 319.39 355.3 308.45C355.79 308.18 355.96 307.58 355.7 307.09C355.43 306.61 354.82 306.43 354.34 306.7C334.46 317.64 175.39 405.19 155.51 416.13C153.45 417.27 150.96 417.29 148.88 416.19C128.67 405.53 -33.01 320.24 -53.22 309.58C-53.71 309.32 -54.32 309.51 -54.57 309.99C-54.83 310.48 -54.65 311.09 -54.16 311.34C-54.16 311.34 -54.16 311.34 -54.16 311.35C-33.95 322.01 127.73 407.3 147.94 417.96C149.24 418.64 150.68 419 152.14 419C153.66 419 155.15 418.62 156.47 417.88Z" id="j6dfY9KQB"></path><path d="M325.47 487.01C329.88 487.01 333.46 483.43 333.46 479.02C333.46 474.61 329.88 471.03 325.47 471.03C322.67 471.03 300.3 471.03 297.5 471.03C293.09 471.03 289.51 474.61 289.51 479.02C289.51 483.43 293.09 487.01 297.5 487.01C303.09 487.01 322.67 487.01 325.47 487.01Z" id="c3w1Qt4uIA"></path><path d="M325.47 513.98C329.88 513.98 333.46 510.41 333.46 505.99C333.46 501.58 329.88 498 325.47 498C319.38 498 270.63 498 264.54 498C260.12 498 256.54 501.58 256.54 505.99C256.54 510.41 260.12 513.98 264.54 513.98C276.72 513.98 319.38 513.98 325.47 513.98Z" id="d4beuTjL6A"></path><path d="M152.22 387.12C169.87 387.12 184.19 401.43 184.19 419.09C184.19 436.74 169.87 451.05 152.22 451.05C134.57 451.05 120.25 436.74 120.25 419.09C120.25 401.43 134.57 387.12 152.22 387.12Z" id="a1XMt6EeWE"></path><path d="M156.25 378.79C155.76 379 155.22 379 154.73 378.8C140.21 372.92 24.02 325.9 9.5 320.03C8.47 319.61 7.98 318.45 8.39 317.43C8.7 316.67 9.43 316.18 10.24 316.18C38.86 316.18 267.74 316.18 296.35 316.18C297.45 316.18 298.35 317.07 298.35 318.18C298.35 318.98 297.86 319.71 297.12 320.02C268.95 331.77 170.34 372.92 156.25 378.79Z" id="bUehuQJnn"></path><path d="M318.8 306.86C321.67 308.51 335.97 316.76 361.72 331.62L372.15 325.61L383.27 340.17C372.81 347.62 367 351.76 365.83 352.59C362.94 354.65 359.03 354.56 356.25 352.36C351.82 348.87 316.42 320.94 312 317.45C306.57 319.46 300.53 316.69 298.52 311.26C296.51 305.83 299.29 299.79 304.72 297.78C310.15 295.77 316.18 298.55 318.19 303.98C318.34 304.38 318.47 304.8 318.57 305.22C318.69 305.76 318.77 306.31 318.8 306.86Z" id="g3ESplMMa"></path><path d="M377.02 350.76C378.54 352.73 381.36 353.09 383.32 351.58C383.5 351.44 383.66 351.29 383.82 351.13C385.39 349.5 397.95 336.46 399.52 334.83C404.95 330.59 405.92 322.74 401.67 317.31C397.45 311.9 389.64 310.91 384.21 315.11C382.24 316.21 366.48 325.02 364.51 326.12C362.35 327.33 361.57 330.07 362.79 332.24C362.89 332.43 363.02 332.61 363.15 332.79C363.15 332.79 375.63 348.97 377.02 350.76Z" id="geefmGdXY"></path><path d="M419.94 240.8C433.49 240.8 444.48 251.79 444.48 265.34C444.48 278.89 433.49 289.87 419.94 289.87C406.39 289.87 395.41 278.89 395.41 265.34C395.41 251.79 406.39 240.8 419.94 240.8Z" id="d3YNRF7rB0"></path><path d="M384.54 616.63L378.71 569.39L396.79 569.39L396.78 616.63L396.78 616.63L384.54 616.63Z" id="c46QddPLV6"></path><path d="M399.91 612.63L375.79 612.63C375.79 612.63 375.79 612.63 375.79 612.63C367.3 612.63 360.42 619.51 360.42 628C360.42 628 360.42 628 360.42 628C360.42 628.03 360.42 628.2 360.42 628.5L399.91 628.5L399.91 612.63Z" id="b3ypjl1JZ4"></path><path d="M426.49 616.63L420.67 569.39L438.74 569.39L438.74 616.63L438.74 616.63L426.49 616.63Z" id="b1byk69Z3M"></path><path d="M441.86 612.63L417.75 612.63C417.74 612.63 417.74 612.63 417.74 612.63C409.26 612.63 402.37 619.51 402.37 628C402.37 628 402.37 628 402.37 628C402.37 628.03 402.37 628.2 402.37 628.5L441.86 628.5L441.86 612.63Z" id="a16JHG80cT"></path><path d="M412.95 502.05C412.96 501.78 413.19 501.58 413.46 501.58C413.72 501.57 413.94 501.78 413.95 502.04C413.95 502.05 413.95 502.06 413.95 502.06C414.31 511.59 417.18 587.79 417.54 597.31C417.62 599.73 419.61 601.65 422.03 601.64C423.51 601.64 435.38 601.64 436.86 601.64C439.31 601.65 441.31 599.7 441.36 597.25C441.61 586.67 442.9 533.77 445.21 438.56L378.82 439.22C377.83 534.74 377.28 587.81 377.17 598.42C377.2 599.7 377.77 600.91 378.74 601.74C379.7 602.56 380.95 602.94 382.2 602.78C383.64 602.78 395.15 602.82 396.58 602.82C398.69 602.53 400.3 600.81 400.46 598.7C400.46 598.7 411.7 511.72 412.95 502.05Z" id="b3tX49DX6O"></path><path d="M449.03 439.37C449.1 430.65 449.63 360.88 449.69 352.16C452.63 332.74 456.1 313.71 439.12 303.87C438.97 303.42 437.77 299.83 437.62 299.38C437.29 298.39 436.37 297.71 435.32 297.67C432.1 297.58 406.34 296.85 403.12 296.75C402.09 296.72 401.15 297.32 400.75 298.27C400.59 298.64 399.79 300.5 398.35 303.86C397.84 304.15 397.56 304.31 397.5 304.34C380.96 313.77 371.67 332.19 373.93 351.1C374.05 352.14 374.67 357.32 375.77 366.65C376.56 410.24 376.99 434.46 377.08 439.31C377.11 440.93 378.01 442.41 379.44 443.19C388.8 448.31 399.16 450.07 408.97 450.07C425.45 450.07 440.35 445.12 446.19 442.9C447.7 442.32 448.79 440.97 449.03 439.37Z" id="dqa34YYXZ"></path><path d="M447.48 265.17C447.79 250.72 436.33 238.75 421.87 238.44C419.85 238.39 417.82 238.59 415.84 239.01C410.44 235.73 404.17 233.53 397.88 234.09C391.6 234.65 385.38 238.38 383.03 244.24C380.68 250.1 383.2 257.82 389.05 260.2C392.8 261.73 397.03 260.99 401.03 260.37C405.03 259.76 409.39 259.36 412.87 261.42C416.35 263.48 417.92 269.02 414.8 271.6C411.41 274.51 410.19 279.21 411.72 283.4C413.28 287.46 417.56 290.71 420.74 290.78C435.2 291.09 447.17 279.63 447.48 265.17Z" id="b1lo8xAuY5"></path><path d="M485.19 628.84C485.75 628.84 486.19 628.39 486.19 627.84C486.19 627.29 485.75 626.84 485.19 626.84C469.61 626.84 344.95 626.84 329.36 626.84C328.81 626.84 328.36 627.29 328.36 627.84C328.36 628.39 328.81 628.84 329.36 628.84C360.53 628.84 469.61 628.84 485.19 628.84Z" id="b2xps3vNw"></path></defs><g><g><g><use xlink:href="#e148L17qc7" opacity="1" fill="#ffffff" fill-opacity="1"></use><g><use xlink:href="#e148L17qc7" opacity="1" fill-opacity="0" stroke="#000000" stroke-width="1" stroke-opacity="0"></use></g></g><g><use xlink:href="#e2CCync5b" opacity="1" fill="#3f3d56" fill-opacity="1"></use><g><use xlink:href="#e2CCync5b" opacity="1" fill-opacity="0" stroke="#000000" stroke-width="1" stroke-opacity="0"></use></g></g><g><use xlink:href="#biX3z2FR5" opacity="1" fill="#f2f2f2" fill-opacity="1"></use><g><use xlink:href="#biX3z2FR5" opacity="1" fill-opacity="0" stroke="#000000" stroke-width="1" stroke-opacity="0"></use></g></g><g><use xlink:href="#c3hNQryGV3" opacity="1" fill="#2563eb" fill-opacity="1"></use><g><use xlink:href="#c3hNQryGV3" opacity="1" fill-opacity="0" stroke="#000000" stroke-width="1" stroke-opacity="0"></use></g></g><g><use xlink:href="#e1hmaZ2aPH" opacity="1" fill="#ffffff" fill-opacity="1"></use><g><use xlink:href="#e1hmaZ2aPH" opacity="1" fill-opacity="0" stroke="#000000" stroke-width="1" stroke-opacity="0"></use></g></g><g><use xlink:href="#aDfOWGGyW" opacity="1" fill="#ffffff" fill-opacity="1"></use><g><use xlink:href="#aDfOWGGyW" opacity="1" fill-opacity="0" stroke="#000000" stroke-width="1" stroke-opacity="0"></use></g></g><g><use xlink:href="#baEtycTV7" opacity="1" fill="#ffffff" fill-opacity="1"></use><g><use xlink:href="#baEtycTV7" opacity="1" fill-opacity="0" stroke="#000000" stroke-width="1" stroke-opacity="0"></use></g></g><g><use xlink:href="#h5vyOnujc" opacity="1" fill="#2563eb" fill-opacity="1"></use><g><use xlink:href="#h5vyOnujc" opacity="1" fill-opacity="0" stroke="#000000" stroke-width="1" stroke-opacity="0"></use></g></g><g><use xlink:href="#eTcIsnq4x" opacity="1" fill="#3f3d56" fill-opacity="1"></use><g><use xlink:href="#eTcIsnq4x" opacity="1" fill-opacity="0" stroke="#000000" stroke-width="1" stroke-opacity="0"></use></g></g><g><use xlink:href="#a1h5l7Bc5S" opacity="1" fill="#3f3d56" fill-opacity="1"></use><g><use xlink:href="#a1h5l7Bc5S" opacity="1" fill-opacity="0" stroke="#000000" stroke-width="1" stroke-opacity="0"></use></g></g><g><use xlink:href="#b3aYkthfIk" opacity="1" fill="#ffb8b8" fill-opacity="1"></use><g><use xlink:href="#b3aYkthfIk" opacity="1" fill-opacity="0" stroke="#000000" stroke-width="1" stroke-opacity="0"></use></g></g><g><use xlink:href="#dthf2UfOD" opacity="1" fill="#cccccc" fill-opacity="1"></use><g><use xlink:href="#dthf2UfOD" opacity="1" fill-opacity="0" stroke="#000000" stroke-width="1" stroke-opacity="0"></use></g></g><g><use xlink:href="#b2QYVtDaCV" opacity="1" fill="#ffb8b8" fill-opacity="1"></use><g><use xlink:href="#b2QYVtDaCV" opacity="1" fill-opacity="0" stroke="#000000" stroke-width="1" stroke-opacity="0"></use></g></g><g><use xlink:href="#b3kcAETPB7" opacity="1" fill="#ffb8b8" fill-opacity="1"></use><g><use xlink:href="#b3kcAETPB7" opacity="1" fill-opacity="0" stroke="#000000" stroke-width="1" stroke-opacity="0"></use></g></g><g><use xlink:href="#b41RMI2N8w" opacity="1" fill="#2f2e41" fill-opacity="1"></use><g><use xlink:href="#b41RMI2N8w" opacity="1" fill-opacity="0" stroke="#000000" stroke-width="1" stroke-opacity="0"></use></g></g><g><use xlink:href="#bizg0uO5U" opacity="1" fill="#ffb8b8" fill-opacity="1"></use><g><use xlink:href="#bizg0uO5U" opacity="1" fill-opacity="0" stroke="#000000" stroke-width="1" stroke-opacity="0"></use></g></g><g><use xlink:href="#a3qdxZgTF" opacity="1" fill="#2f2e41" fill-opacity="1"></use><g><use xlink:href="#a3qdxZgTF" opacity="1" fill-opacity="0" stroke="#000000" stroke-width="1" stroke-opacity="0"></use></g></g><g><use xlink:href="#b2h4B8MGyM" opacity="1" fill="#2f2e41" fill-opacity="1"></use><g><use xlink:href="#b2h4B8MGyM" opacity="1" fill-opacity="0" stroke="#000000" stroke-width="1" stroke-opacity="0"></use></g></g><g><use xlink:href="#bRKPUY6OE" opacity="1" fill="#cccccc" fill-opacity="1"></use><g><use xlink:href="#bRKPUY6OE" opacity="1" fill-opacity="0" stroke="#000000" stroke-width="1" stroke-opacity="0"></use></g></g><g><use xlink:href="#g3BY8uOgrv" opacity="1" fill="#2f2e41" fill-opacity="1"></use><g><use xlink:href="#g3BY8uOgrv" opacity="1" fill-opacity="0" stroke="#000000" stroke-width="1" stroke-opacity="0"></use></g></g><g><use xlink:href="#a4pLUTWv2q" opacity="1" fill="#2f2e41" fill-opacity="1"></use><g><use xlink:href="#a4pLUTWv2q" opacity="1" fill-opacity="0" stroke="#000000" stroke-width="1" stroke-opacity="0"></use></g></g><g><use xlink:href="#k13ITb6sst" opacity="1" fill="#ffb8b8" fill-opacity="1"></use><g><use xlink:href="#k13ITb6sst" opacity="1" fill-opacity="0" stroke="#000000" stroke-width="1" stroke-opacity="0"></use></g></g><g><use xlink:href="#btWyAdREC" opacity="1" fill="#cccccc" fill-opacity="1"></use><g><use xlink:href="#btWyAdREC" opacity="1" fill-opacity="0" stroke="#000000" stroke-width="1" stroke-opacity="0"></use></g></g><g><use xlink:href="#a6z1eETLIe" opacity="1" fill="#ffb8b8" fill-opacity="1"></use><g><use xlink:href="#a6z1eETLIe" opacity="1" fill-opacity="0" stroke="#000000" stroke-width="1" stroke-opacity="0"></use></g></g><g><use xlink:href="#a1zPBKgTij" opacity="1" fill="#3f3d56" fill-opacity="1"></use><g><use xlink:href="#a1zPBKgTij" opacity="1" fill-opacity="0" stroke="#000000" stroke-width="1" stroke-opacity="0"></use></g></g><g><use xlink:href="#a1xVd6qOvx" opacity="1" fill="#ffffff" fill-opacity="1"></use><g><use xlink:href="#a1xVd6qOvx" opacity="1" fill-opacity="0" stroke="#000000" stroke-width="1" stroke-opacity="0"></use></g></g><g><use xlink:href="#a1jucJwKhg" opacity="1" fill="#3f3d56" fill-opacity="1"></use><g><use xlink:href="#a1jucJwKhg" opacity="1" fill-opacity="0" stroke="#000000" stroke-width="1" stroke-opacity="0"></use></g></g><g><use xlink:href="#j6dfY9KQB" opacity="1" fill="#3f3d56" fill-opacity="1"></use><g><use xlink:href="#j6dfY9KQB" opacity="1" fill-opacity="0" stroke="#000000" stroke-width="1" stroke-opacity="0"></use></g></g><g><use xlink:href="#c3w1Qt4uIA" opacity="1" fill="#3f3d56" fill-opacity="1"></use><g><use xlink:href="#c3w1Qt4uIA" opacity="1" fill-opacity="0" stroke="#000000" stroke-width="1" stroke-opacity="0"></use></g></g><g><use xlink:href="#d4beuTjL6A" opacity="1" fill="#3f3d56" fill-opacity="1"></use><g><use xlink:href="#d4beuTjL6A" opacity="1" fill-opacity="0" stroke="#000000" stroke-width="1" stroke-opacity="0"></use></g></g><g><use xlink:href="#a1XMt6EeWE" opacity="1" fill="#2563eb" fill-opacity="1"></use><g><use xlink:href="#a1XMt6EeWE" opacity="1" fill-opacity="0" stroke="#000000" stroke-width="1" stroke-opacity="0"></use></g></g><g><use xlink:href="#bUehuQJnn" opacity="1" fill="#f2f2f2" fill-opacity="1"></use><g><use xlink:href="#bUehuQJnn" opacity="1" fill-opacity="0" stroke="#000000" stroke-width="1" stroke-opacity="0"></use></g></g><g><use xlink:href="#g3ESplMMa" opacity="1" fill="#ffb8b8" fill-opacity="1"></use><g><use xlink:href="#g3ESplMMa" opacity="1" fill-opacity="0" stroke="#000000" stroke-width="1" stroke-opacity="0"></use></g></g><g><use xlink:href="#geefmGdXY" opacity="1" fill="#3f3d56" fill-opacity="1"></use><g><use xlink:href="#geefmGdXY" opacity="1" fill-opacity="0" stroke="#000000" stroke-width="1" stroke-opacity="0"></use></g></g><g><use xlink:href="#d3YNRF7rB0" opacity="1" fill="#ffb8b8" fill-opacity="1"></use><g><use xlink:href="#d3YNRF7rB0" opacity="1" fill-opacity="0" stroke="#000000" stroke-width="1" stroke-opacity="0"></use></g></g><g><use xlink:href="#c46QddPLV6" opacity="1" fill="#ffb8b8" fill-opacity="1"></use><g><use xlink:href="#c46QddPLV6" opacity="1" fill-opacity="0" stroke="#000000" stroke-width="1" stroke-opacity="0"></use></g></g><g><use xlink:href="#b3ypjl1JZ4" opacity="1" fill="#2f2e41" fill-opacity="1"></use><g><use xlink:href="#b3ypjl1JZ4" opacity="1" fill-opacity="0" stroke="#000000" stroke-width="1" stroke-opacity="0"></use></g></g><g><use xlink:href="#b1byk69Z3M" opacity="1" fill="#ffb8b8" fill-opacity="1"></use><g><use xlink:href="#b1byk69Z3M" opacity="1" fill-opacity="0" stroke="#000000" stroke-width="1" stroke-opacity="0"></use></g></g><g><use xlink:href="#a16JHG80cT" opacity="1" fill="#2f2e41" fill-opacity="1"></use><g><use xlink:href="#a16JHG80cT" opacity="1" fill-opacity="0" stroke="#000000" stroke-width="1" stroke-opacity="0"></use></g></g><g><use xlink:href="#b3tX49DX6O" opacity="1" fill="#2f2e41" fill-opacity="1"></use><g><use xlink:href="#b3tX49DX6O" opacity="1" fill-opacity="0" stroke="#000000" stroke-width="1" stroke-opacity="0"></use></g></g><g><use xlink:href="#dqa34YYXZ" opacity="1" fill="#3f3d56" fill-opacity="1"></use><g><use xlink:href="#dqa34YYXZ" opacity="1" fill-opacity="0" stroke="#000000" stroke-width="1" stroke-opacity="0"></use></g></g><g><use xlink:href="#b1lo8xAuY5" opacity="1" fill="#2f2e41" fill-opacity="1"></use><g><use xlink:href="#b1lo8xAuY5" opacity="1" fill-opacity="0" stroke="#000000" stroke-width="1" stroke-opacity="0"></use></g></g><g><use xlink:href="#b2xps3vNw" opacity="1" fill="#cccccc" fill-opacity="1"></use><g><use xlink:href="#b2xps3vNw" opacity="1" fill-opacity="0" stroke="#000000" stroke-width="1" stroke-opacity="0"></use></g></g></g></g></svg>