<?xml version="1.0" encoding="UTF-8" standalone="no"?>
<!DOCTYPE svg PUBLIC "-//W3C//DTD SVG 1.1//EN" "http://www.w3.org/Graphics/SVG/1.1/DTD/svg11.dtd">
<svg version="1.1" xmlns="http://www.w3.org/2000/svg" xmlns:xlink="http://www.w3.org/1999/xlink" preserveAspectRatio="xMidYMid meet" viewBox="0 0 640 640" width="640" height="640"><defs><path d="M324.99 100.33C291.68 100.33 264.67 127.33 264.67 160.65C264.67 193.96 291.68 220.97 324.99 220.97C358.31 220.97 385.31 193.96 385.31 160.65C385.31 127.33 358.31 100.33 324.99 100.33Z" id="cNT955Wj1"></path><path d="M279.97 190.81C279.97 190.81 291.33 276.48 273.85 286.1C273.85 286.1 377.88 296.59 377.88 296.59C377.88 296.59 350.78 222.28 363.02 199.55C346.41 197.8 296.58 192.56 279.97 190.81Z" id="d1fu8mty7y"></path><path d="M466.61 297.02L456.51 343.04L435.14 440.4L434.5 445.73L427.13 507.46L422.22 548.47C420.25 564.99 419.15 574.17 418.93 576.01C398.93 586.29 384.44 593.38 384.44 593.38C384.44 593.38 383.19 587.13 381.18 579.14C367.15 583.34 341.18 590.32 319.17 591.72C327.18 600.65 330.86 609.04 325.87 615.24C310.79 633.91 248.55 594.8 226.78 580.21C226.27 583.7 226.08 587.23 226.2 590.76C225.09 589.91 219.54 585.63 209.54 577.95L211.19 548.47L213.97 498.58C216.07 461.05 217.23 440.2 217.47 436.03C216.37 433.35 215.44 430.6 214.7 427.8C209.6 409.66 203.41 373.42 198.66 343.04C194.84 318.59 191.96 297.92 191.36 293.53C191.28 292.95 191.23 292.66 191.23 292.66C200.46 288.58 274.24 255.98 283.46 251.91C290.01 267.11 320.62 271.67 320.62 271.67C345.97 269.93 365.85 256.56 365.85 256.56C379.29 261.95 412.87 275.44 466.61 297.02Z" id="aMrJjYXum"></path><path d="M391.43 575.9C391.43 575.9 387.53 577.24 381.18 579.14C367.15 583.34 341.18 590.32 319.17 591.72C300.22 592.93 284.21 590.01 281.28 577.65C280.02 572.34 281.8 567.96 285.68 564.37C297.27 553.63 327.52 549.79 351.51 548.47C358.29 548.1 364.55 547.92 369.77 547.86C378.63 547.74 384.44 547.92 384.44 547.92C384.45 547.96 384.49 548.14 384.58 548.47C388.23 563.1 390.52 572.25 391.43 575.9Z" id="awqmemVk3"></path><path d="M263.53 99.07C263.53 99.07 287.11 73.11 319.93 75.37C319 74.35 311.62 66.23 310.7 65.21C310.7 65.21 333.25 56.18 353.76 79.88C364.54 92.35 377.01 106.99 384.79 123.49C385.59 123.49 389.62 123.49 396.87 123.49L391.83 134.59L409.47 145.69C398.6 144.5 392.57 143.83 391.36 143.7C392.44 149.78 392.6 155.98 391.85 162.11C391.07 168.24 387.95 173.83 383.13 177.69C383.13 177.69 383.13 177.69 383.13 177.69C383.13 177.69 369.14 148.74 369.14 144.23C369.14 145.36 369.14 154.39 369.14 155.52C369.14 155.52 357.86 145.36 357.86 138.58C357.45 139.11 355.4 141.74 351.71 146.48L348.63 134.07L310.7 146.48L316.85 136.33L293.27 139.71C298.8 132.26 301.88 128.12 302.49 127.29C302.49 127.29 275.84 141.97 274.81 154.39C273.79 166.8 265.98 178.57 265.98 178.57C265.98 178.57 245.08 120.52 274.81 103.59C272.56 102.69 264.66 99.53 263.53 99.07Z" id="p3KFkrVL6S"></path><path d="M492.35 536.14C485.49 540.17 478.18 544.33 470.72 548.47C452.93 558.33 434.3 568.11 418.93 576.01C398.93 586.29 384.44 593.38 384.44 593.38C384.44 593.38 383.19 587.13 381.18 579.14C378.49 568.43 374.44 554.59 370.21 548.47C370.07 548.25 369.92 548.06 369.77 547.86C368.54 546.24 367.3 545.3 366.08 545.3C370.15 542.78 390.5 530.16 427.13 507.46L453.51 491.1L434.5 445.73L410.66 388.82L425.05 343.04L439.51 297.02C455.77 297.02 464.81 297.02 466.61 297.02C466.61 297.02 475.59 316.61 487.06 343.93C488.78 348.01 490.55 352.27 492.35 356.66C515.96 414.09 545.39 494.27 532.18 508.58C526.04 515.24 510.81 525.28 492.35 536.14Z" id="a1Q89HpBDC"></path><path d="M226.78 580.21C222.04 577.04 219.21 575.03 219.21 575.03C220.54 573.26 227.18 564.4 239.13 548.47C242.92 543.42 245.02 540.62 245.44 540.06C245.44 540.06 251.08 543.05 259.43 547.92C259.73 548.1 260.03 548.28 260.34 548.47C267.54 552.69 276.57 558.21 285.68 564.37C298.26 572.88 310.97 582.58 319.17 591.72C327.18 600.65 330.86 609.04 325.87 615.24C310.79 633.91 248.55 594.8 226.78 580.21Z" id="e1EZ3MFXqL"></path><path d="M259.43 547.92C257.2 547.92 254.98 548.1 252.78 548.47C233.92 551.71 228.36 568.78 226.78 580.21C226.27 583.7 226.08 587.23 226.2 590.76C225.09 589.91 219.54 585.63 209.54 577.95C205.9 575.15 203.88 573.59 203.47 573.28C188.86 568.19 175.85 559.14 164.56 548.47C154.77 539.04 145.98 528.63 138.35 517.38C130.75 506.3 123.97 494.68 118.07 482.6C114.74 475.78 114.61 467.83 117.72 460.91C119.1 457.84 125.97 442.52 138.35 414.93C156.44 374.61 166.49 352.21 168.5 347.73C168.84 345.33 169.16 343.51 169.23 343.04C175.21 308.75 191.23 293.53 191.23 293.53C192.05 293.53 196.13 293.53 203.47 293.53L211.66 343.04L221.83 404.55L214.7 427.8L198.23 481.49L213.97 498.58C238.21 524.9 253.36 541.35 259.43 547.92Z" id="e1Fbxth7CG"></path><path d="M273.28 404.6C279.55 411.93 283.04 416 283.74 416.81C287.63 416.07 291.69 415.2 295.87 414.22C295.67 413.58 294.67 410.37 292.86 404.6C297.27 409.75 299.72 412.6 300.21 413.17C344.5 402.28 399.4 381.1 399.4 381.1C399.4 381.1 340.13 385.45 295.88 375.78C276.3 371.5 256.15 381.21 248.11 399.57C243.44 410.24 244.18 419.49 260.74 419.49C266.34 419.39 271.92 418.87 277.44 417.92C276.88 416.14 275.5 411.7 273.28 404.6Z" id="aCxnXuOso"></path><path d="M511.8 610.21C511.8 611.58 511.55 612.93 511.05 614.2C510.83 614.77 510.56 615.32 510.25 615.84C508.26 619.18 504.67 621.23 500.78 621.23C464.15 621.23 171.11 621.23 134.48 621.23C130.59 621.23 126.99 619.18 125 615.84C124.7 615.32 124.43 614.77 124.21 614.2C123.71 612.93 123.46 611.58 123.46 610.21C123.46 609.71 123.46 605.73 123.46 605.23C123.46 599.15 128.39 594.21 134.47 594.21C134.47 594.21 134.48 594.21 134.48 594.21C135.89 594.21 142.92 594.21 155.59 594.21C155.59 592.82 155.59 592.05 155.59 591.89C155.59 591.64 155.8 591.43 156.05 591.43C156.05 591.43 156.05 591.43 156.05 591.43C157.15 591.43 165.97 591.43 167.07 591.43C167.32 591.43 167.53 591.64 167.53 591.89C167.53 591.89 167.53 591.89 167.53 591.89C167.53 592.05 167.53 592.82 167.53 594.21L174.41 594.21C174.41 592.82 174.41 592.05 174.41 591.89C174.41 591.64 174.61 591.43 174.87 591.43C174.87 591.43 174.87 591.43 174.87 591.43C175.97 591.43 184.78 591.43 185.89 591.43C186.14 591.43 186.35 591.64 186.35 591.89C186.35 591.89 186.35 591.89 186.35 591.89C186.35 592.05 186.35 592.82 186.35 594.21L193.24 594.21C193.24 592.82 193.24 592.05 193.24 591.89C193.24 591.64 193.44 591.43 193.69 591.43C193.69 591.43 193.69 591.43 193.7 591.43C194.8 591.43 203.61 591.43 204.71 591.43C204.97 591.43 205.17 591.64 205.17 591.89C205.17 591.89 205.17 591.89 205.17 591.89C205.17 592.05 205.17 592.82 205.17 594.21L212.05 594.21C212.05 592.82 212.05 592.05 212.05 591.89C212.05 591.64 212.26 591.43 212.51 591.43C212.51 591.43 212.51 591.43 212.51 591.43C213.61 591.43 222.43 591.43 223.53 591.43C223.78 591.43 223.99 591.64 223.99 591.89C223.99 591.89 223.99 591.89 223.99 591.89C223.99 592.05 223.99 592.82 223.99 594.21L230.87 594.21C230.87 592.82 230.87 592.05 230.87 591.89C230.87 591.64 231.08 591.43 231.33 591.43C231.33 591.43 231.33 591.43 231.33 591.43C232.43 591.43 241.25 591.43 242.35 591.43C242.6 591.43 242.81 591.64 242.81 591.89C242.81 591.89 242.81 591.89 242.81 591.89C242.81 592.05 242.81 592.82 242.81 594.21L249.7 594.21C249.7 592.82 249.7 592.05 249.7 591.89C249.7 591.64 249.9 591.43 250.15 591.43C250.15 591.43 250.16 591.43 250.16 591.43C251.26 591.43 260.07 591.43 261.17 591.43C261.43 591.43 261.63 591.64 261.63 591.89C261.63 591.89 261.63 591.89 261.63 591.89C261.63 592.05 261.63 592.82 261.63 594.21L268.51 594.21C268.51 592.82 268.51 592.05 268.51 591.89C268.51 591.64 268.72 591.43 268.97 591.43C268.97 591.43 268.97 591.43 268.97 591.43C277.6 591.43 346.64 591.43 355.27 591.43C355.52 591.43 355.73 591.64 355.73 591.89C355.73 591.89 355.73 591.89 355.73 591.89C355.73 592.05 355.73 592.82 355.73 594.21L362.62 594.21C362.62 592.82 362.62 592.05 362.62 591.89C362.62 591.64 362.82 591.43 363.08 591.43C363.08 591.43 363.08 591.43 363.08 591.43C364.18 591.43 372.99 591.43 374.09 591.43C374.35 591.43 374.55 591.64 374.55 591.89C374.55 592.05 374.55 592.82 374.55 594.21L381.44 594.21C381.44 592.82 381.44 592.05 381.44 591.89C381.43 591.64 381.64 591.43 381.89 591.43C381.89 591.43 381.89 591.43 381.89 591.43C383 591.43 391.81 591.43 392.91 591.43C393.16 591.43 393.37 591.64 393.37 591.89C393.37 591.89 393.37 591.89 393.37 591.89C393.37 592.05 393.37 592.82 393.37 594.21L400.25 594.21C400.25 592.82 400.25 592.05 400.25 591.89C400.25 591.64 400.46 591.43 400.71 591.43C400.71 591.43 400.71 591.43 400.71 591.43C401.81 591.43 410.63 591.43 411.73 591.43C411.98 591.43 412.19 591.64 412.19 591.89C412.19 591.89 412.19 591.89 412.19 591.89C412.19 592.05 412.19 592.82 412.19 594.21L419.08 594.21C419.08 592.82 419.08 592.05 419.08 591.89C419.08 591.64 419.28 591.43 419.54 591.43C419.54 591.43 419.54 591.43 419.54 591.43C420.64 591.43 429.45 591.43 430.55 591.43C430.81 591.44 431.01 591.64 431.01 591.89C431.01 592.05 431.01 592.82 431.01 594.21L437.9 594.21C437.9 592.82 437.9 592.05 437.9 591.89C437.9 591.64 438.1 591.43 438.35 591.43C438.35 591.43 438.35 591.43 438.36 591.43C439.46 591.43 448.27 591.43 449.37 591.43C449.63 591.43 449.83 591.64 449.83 591.89C449.83 591.89 449.83 591.89 449.83 591.89C449.83 592.05 449.83 592.82 449.83 594.21L456.71 594.21C456.71 592.82 456.71 592.05 456.71 591.89C456.71 591.64 456.92 591.43 457.17 591.43C457.17 591.43 457.17 591.43 457.17 591.43C458.27 591.43 467.09 591.43 468.19 591.43C468.44 591.43 468.65 591.64 468.65 591.89C468.65 591.89 468.65 591.89 468.65 591.89C468.65 592.05 468.65 592.82 468.65 594.21C487.93 594.21 498.64 594.21 500.78 594.21C506.86 594.21 511.79 599.14 511.8 605.22C511.8 605.23 511.8 605.23 511.8 605.23C511.8 606.23 511.8 609.71 511.8 610.21Z" id="b7GKkaWLd"></path><path d="M618.31 614.2C618.31 614.2 618.31 614.2 618.31 614.2C618.31 615.19 618.31 615.73 618.31 615.84C618.31 615.84 618.31 615.84 618.31 615.84C257.55 615.84 57.12 615.84 17.04 615.84C17.04 615.84 17.04 615.84 17.04 615.84C17.04 614.86 17.04 614.31 17.04 614.2C17.04 614.2 17.04 614.2 17.04 614.2C377.8 614.2 578.23 614.2 618.31 614.2Z" id="a7p86Vt9p"></path><path d="M345.77 395.54L345.77 392.72L283.86 392.72L283.86 395.54C201.6 395.54 155.91 395.54 146.77 395.54C141.67 395.54 137.53 399.67 137.53 404.77C137.53 404.77 137.53 404.77 137.53 404.77C137.53 423.47 137.53 573.03 137.53 591.73C137.53 596.83 141.67 600.96 146.77 600.96C180.32 600.96 448.75 600.96 482.3 600.96C487.4 600.96 491.54 596.83 491.54 591.73C491.54 573.03 491.54 423.47 491.54 404.77C491.54 399.67 487.4 395.54 482.3 395.54C482.3 395.54 482.3 395.54 482.3 395.54C482.3 395.54 436.79 395.54 345.77 395.54Z" id="bEZElhBqh"></path><path d="M314.8 440.3C303.48 440.3 294.3 449.48 294.3 460.81C294.3 472.13 303.48 481.32 314.8 481.32C326.13 481.32 335.31 472.13 335.31 460.81C335.31 449.48 326.13 440.3 314.8 440.3Z" id="erkhRnOLP"></path><path d="M308.24 447.68C296.91 447.68 287.73 456.87 287.73 468.19C287.73 479.52 296.91 488.7 308.24 488.7C319.57 488.7 328.75 479.52 328.75 468.19C328.75 456.87 319.57 447.68 308.24 447.68Z" id="aTAD8yT0f"></path><path d="M56.37 605.92C56.37 605.92 56.37 605.92 56.37 605.92C56.37 619.7 56.37 627.35 56.37 628.88C56.37 628.88 56.37 628.88 56.37 628.88C42.59 628.88 34.93 628.88 33.4 628.88C33.4 628.88 33.4 628.88 33.4 628.88C33.4 615.1 33.4 607.45 33.4 605.92C33.4 605.92 33.4 605.92 33.4 605.92C47.18 605.92 54.84 605.92 56.37 605.92Z" id="d3PlikFRP"></path><path d="M42.43 587.87L42.43 615.76L70.32 615.76L70.32 587.87L42.43 587.87ZM69.1 614.55L43.63 614.55L43.63 589.08L69.1 589.08L69.1 614.55Z" id="a15fSdcVYj"></path><path d="M57.17 591.87C56.51 591.89 55.97 591.89 55.84 591.89C54.5 591.9 53.46 591.85 53.19 591.85C35.81 591.13 22.06 581.9 21.34 557.53C20.61 532.3 51.91 499.53 54.26 497.1C54.26 497.1 54.27 497.1 54.27 497.1C54.36 497.01 54.4 496.96 54.4 496.96C54.4 496.96 90.18 529.29 90.94 555.49C91.71 581.7 76.39 591.31 57.17 591.87Z" id="b58lL09qd7"></path><path d="M55.79 587.9L68 569.74L55.82 589.85C55.83 591.07 55.84 591.76 55.84 591.89C54.95 591.9 54.07 591.88 53.19 591.85L53.8 565.59L53.78 565.39L53.81 565.35L53.86 562.87L40.49 543.45L53.85 561.01L53.89 561.53L54.35 541.69L42.8 521.57L54.38 538.21L54.26 497.1L54.26 496.97L54.27 497.1L55.03 529.5L65.56 516.34L55.07 532.29L55.3 550.03L64.98 532.71L55.33 552.64L55.46 562.51L69.55 538.38L55.51 565.95L55.79 587.9Z" id="ceg4pQcyS"></path><path d="M164.56 194.88L131.01 194.88L131.01 193.76L165.04 193.76L165.2 193.93L236.45 265.74L235.65 266.53L235.65 266.53L164.56 194.88Z" id="a42bUq6wzn"></path><path d="M92.71 159.56C92.71 159.56 92.71 159.56 92.71 159.56C92.71 169.32 92.71 174.74 92.71 175.83C92.71 175.83 92.71 175.83 92.71 175.83C43.37 175.83 15.96 175.83 10.47 175.83C10.47 175.83 10.47 175.83 10.47 175.83C10.47 166.07 10.47 160.65 10.47 159.56C10.47 159.56 10.47 159.56 10.47 159.56C59.81 159.56 87.22 159.56 92.71 159.56Z" id="biValjGL"></path><path d="M92.71 184.52C92.71 184.52 92.71 184.52 92.71 184.52C92.71 194.28 92.71 199.7 92.71 200.79C92.71 200.79 92.71 200.79 92.71 200.79C43.37 200.79 15.96 200.79 10.47 200.79C10.47 200.79 10.47 200.79 10.47 200.79C10.47 191.03 10.47 185.61 10.47 184.52C10.47 184.52 10.47 184.52 10.47 184.52C59.81 184.52 87.22 184.52 92.71 184.52Z" id="adpczavio"></path><path d="M92.71 209.48C92.71 209.48 92.71 209.48 92.71 209.48C92.71 219.24 92.71 224.66 92.71 225.74C92.71 225.74 92.71 225.74 92.71 225.74C43.37 225.74 15.96 225.74 10.47 225.74C10.47 225.74 10.47 225.74 10.47 225.74C10.47 215.98 10.47 210.56 10.47 209.48C10.47 209.48 10.47 209.48 10.47 209.48C59.81 209.48 87.22 209.48 92.71 209.48Z" id="b2NgRglCBo"></path><path d="M65.3 209.48C65.3 209.48 65.3 209.48 65.3 209.48C65.3 219.24 65.3 224.66 65.3 225.74C65.3 225.74 65.3 225.74 65.3 225.74C32.4 225.74 14.13 225.74 10.47 225.74C10.47 225.74 10.47 225.74 10.47 225.74C10.47 215.98 10.47 210.56 10.47 209.48C10.47 209.48 10.47 209.48 10.47 209.48C43.37 209.48 61.64 209.48 65.3 209.48Z" id="c14iOsfRvU"></path><path d="M116.93 158.84C111.95 158.84 107.91 162.87 107.91 167.85C107.91 172.83 111.95 176.86 116.93 176.86C121.9 176.86 125.94 172.83 125.94 167.85C125.94 162.87 121.9 158.84 116.93 158.84Z" id="c10Evk9poj"></path><path d="M116.93 185.87C111.95 185.87 107.91 189.91 107.91 194.88C107.91 199.86 111.95 203.9 116.93 203.9C121.9 203.9 125.94 199.86 125.94 194.88C125.94 189.91 121.9 185.87 116.93 185.87Z" id="bHOOCbOa6"></path><path d="M116.93 210.09C111.95 210.09 107.91 214.13 107.91 219.1C107.91 224.08 111.95 228.12 116.93 228.12C121.9 228.12 125.94 224.08 125.94 219.1C125.94 214.13 121.9 210.09 116.93 210.09Z" id="ezyp6wLIh"></path><path d="M102.84 165.6C102.84 160.31 107.13 156.02 112.42 156.02C117.71 156.02 121.99 160.31 121.99 165.6C121.99 170.88 117.71 175.17 112.42 175.17C107.13 175.17 102.84 170.88 102.84 165.6ZM103.97 165.6C103.97 170.26 107.75 174.04 112.42 174.04C117.09 174.04 120.87 170.26 120.87 165.6C120.86 160.93 117.08 157.15 112.42 157.15C107.75 157.15 103.97 160.93 103.97 165.6Z" id="aviZmt5MR"></path><path d="M102.84 192.63C102.84 187.34 107.13 183.06 112.42 183.06C117.71 183.06 121.99 187.34 121.99 192.63C121.99 197.92 117.71 202.2 112.42 202.21C107.13 202.21 102.84 197.92 102.84 192.63ZM103.97 192.63C103.97 197.3 107.75 201.08 112.42 201.08C117.09 201.08 120.87 197.3 120.87 192.63C120.86 187.97 117.08 184.19 112.42 184.18C107.75 184.18 103.97 187.97 103.97 192.63Z" id="b8MhV62LG"></path><path d="M102.84 216.85C102.84 211.56 107.13 207.28 112.42 207.28C117.71 207.28 121.99 211.56 121.99 216.85C121.99 222.14 117.71 226.42 112.42 226.43C107.13 226.43 102.84 222.14 102.84 216.85ZM103.97 216.85C103.97 221.52 107.75 225.3 112.42 225.3C117.09 225.3 120.87 221.52 120.87 216.85C120.86 212.19 117.08 208.41 112.42 208.4C107.75 208.4 103.97 212.18 103.97 216.85Z" id="b5RjxmkZrd"></path><path d="M478.83 190.89L512.38 190.89L512.38 189.76L478.36 189.76L478.19 189.93L406.94 261.74L407.74 262.54L407.74 262.54L478.83 190.89Z" id="a2Q2hw29FF"></path><path d="M635.73 161.48C635.73 161.48 635.73 161.48 635.73 161.48C635.73 165.88 635.73 168.33 635.73 168.82C635.73 168.82 635.73 168.82 635.73 168.82C586.32 168.82 558.87 168.82 553.37 168.82C553.37 168.82 553.37 168.82 553.37 168.82C553.37 164.41 553.37 161.97 553.37 161.48C553.37 161.48 553.37 161.48 553.37 161.48C602.79 161.48 630.24 161.48 635.73 161.48Z" id="ayknsGv9n"></path><path d="M538.83 160.53C538.83 160.53 538.83 160.53 538.83 160.53C538.83 170.31 538.83 175.75 538.83 176.84C538.83 176.84 538.83 176.84 538.83 176.84C529.05 176.84 523.61 176.84 522.52 176.84C522.52 176.84 522.52 176.84 522.52 176.84C522.52 167.05 522.52 161.61 522.52 160.53C522.52 160.53 522.52 160.53 522.52 160.53C532.31 160.53 537.74 160.53 538.83 160.53Z" id="adf9EjwN7"></path><path d="M538.83 184.99C538.83 184.99 538.83 184.99 538.83 184.99C538.83 194.78 538.83 200.21 538.83 201.3C538.83 201.3 538.83 201.3 538.83 201.3C529.05 201.3 523.61 201.3 522.52 201.3C522.52 201.3 522.52 201.3 522.52 201.3C522.52 191.51 522.52 186.08 522.52 184.99C522.52 184.99 522.52 184.99 522.52 184.99C532.31 184.99 537.74 184.99 538.83 184.99Z" id="ba6IDU9N7"></path><path d="M538.83 209.45C538.83 209.45 538.83 209.45 538.83 209.45C538.83 219.24 538.83 224.67 538.83 225.76C538.83 225.76 538.83 225.76 538.83 225.76C529.05 225.76 523.61 225.76 522.52 225.76C522.52 225.76 522.52 225.76 522.52 225.76C522.52 215.98 522.52 210.54 522.52 209.45C522.52 209.45 522.52 209.45 522.52 209.45C532.31 209.45 537.74 209.45 538.83 209.45Z" id="a1uisQE64T"></path><path d="M543.34 173.46L525.9 173.46L525.9 156.02L543.34 156.02L543.34 173.46ZM527.03 172.33L542.21 172.33L542.21 157.15L527.03 157.15L527.03 172.33Z" id="fRqMgcdae"></path><path d="M635.73 185.94C635.73 185.94 635.73 185.94 635.73 185.94C635.73 190.34 635.73 192.79 635.73 193.28C635.73 193.28 635.73 193.28 635.73 193.28C586.32 193.28 558.87 193.28 553.37 193.28C553.37 193.28 553.37 193.28 553.37 193.28C553.37 188.88 553.37 186.43 553.37 185.94C553.37 185.94 553.37 185.94 553.37 185.94C602.79 185.94 630.24 185.94 635.73 185.94Z" id="cNVpzFH1"></path><path d="M543.34 197.92L525.9 197.92L525.9 180.48L543.34 180.48L543.34 197.92ZM527.03 196.79L542.21 196.79L542.21 181.61L527.03 181.61L527.03 196.79Z" id="a392VG4GXE"></path><path d="M635.73 210.4C635.73 210.4 635.73 210.4 635.73 210.4C635.73 214.81 635.73 217.25 635.73 217.74C635.73 217.74 635.73 217.74 635.73 217.74C586.32 217.74 558.87 217.74 553.37 217.74C553.37 217.74 553.37 217.74 553.37 217.74C553.37 213.34 553.37 210.89 553.37 210.4C553.37 210.4 553.37 210.4 553.37 210.4C602.79 210.4 630.24 210.4 635.73 210.4Z" id="cczSYf4Kz"></path><path d="M543.34 222.38L525.9 222.38L525.9 204.95L543.34 204.95L543.34 222.38ZM527.03 221.26L542.21 221.26L542.21 206.07L527.03 206.07L527.03 221.26Z" id="a4wCK14ta"></path><path d="M597.2 560.27L595.86 560.27C595.86 553.23 595.86 549.32 595.86 548.53C595.86 547.24 596.76 546.19 597.87 546.19C598.2 546.19 600.88 546.19 601.22 546.19C601.59 546.19 601.89 545.84 601.89 545.4C601.89 544.62 601.89 538.36 601.89 537.58C601.89 537.15 601.59 536.8 601.22 536.8C600.88 536.8 598.2 536.8 597.87 536.8C596.76 536.8 595.86 535.75 595.86 534.45C595.86 534.06 595.86 530.93 595.86 530.54C595.86 530.11 595.56 529.76 595.19 529.76C594.58 529.76 589.76 529.76 589.16 529.76C588.05 529.76 587.15 528.71 587.15 527.41C587.15 527.34 587.15 526.71 587.15 526.63C587.15 526.2 586.85 525.85 586.48 525.85C584.06 525.85 564.77 525.85 562.36 525.85C561.99 525.85 561.69 526.2 561.69 526.63C561.69 526.71 561.69 527.34 561.69 527.41C561.68 528.71 560.78 529.76 559.68 529.76C559.07 529.76 554.25 529.76 553.64 529.76C553.27 529.76 552.98 530.11 552.97 530.54C552.97 530.93 552.97 534.06 552.97 534.45C552.97 535.75 552.07 536.8 550.96 536.8C550.63 536.8 547.95 536.8 547.61 536.8C547.24 536.8 546.94 537.15 546.94 537.58C546.94 538.36 546.94 544.62 546.94 545.4C546.94 545.84 547.24 546.19 547.61 546.19C548.02 546.19 551.23 546.19 551.63 546.19C552.74 546.19 553.64 547.24 553.64 548.53C553.64 549.32 553.64 553.23 553.64 560.27L552.3 560.27C552.3 553.23 552.3 549.32 552.3 548.53C552.3 548.1 552 547.75 551.63 547.75C551.23 547.75 548.02 547.75 547.61 547.75C546.5 547.75 545.61 546.7 545.6 545.4C545.6 544.62 545.6 538.36 545.6 537.58C545.61 536.29 546.5 535.24 547.61 535.24C547.95 535.24 550.63 535.24 550.96 535.24C551.33 535.24 551.63 534.89 551.63 534.45C551.63 534.06 551.63 530.93 551.63 530.54C551.64 529.25 552.54 528.2 553.64 528.2C554.25 528.2 559.07 528.2 559.68 528.2C560.05 528.2 560.34 527.85 560.35 527.41C560.35 527.34 560.35 526.71 560.35 526.63C560.35 525.34 561.25 524.29 562.36 524.28C564.77 524.28 584.06 524.28 586.48 524.28C587.59 524.29 588.49 525.34 588.49 526.63C588.49 526.71 588.49 527.34 588.49 527.41C588.49 527.85 588.79 528.2 589.16 528.2C589.76 528.2 594.58 528.2 595.19 528.2C596.3 528.2 597.2 529.25 597.2 530.54C597.2 530.93 597.2 534.06 597.2 534.45C597.2 534.89 597.5 535.24 597.87 535.24C598.2 535.24 600.88 535.24 601.22 535.24C602.33 535.24 603.23 536.29 603.23 537.58C603.23 538.36 603.23 544.62 603.23 545.4C603.23 546.7 602.33 547.75 601.22 547.75C600.88 547.75 598.2 547.75 597.87 547.75C597.5 547.75 597.2 548.1 597.2 548.53C597.2 550.1 597.2 554.01 597.2 560.27Z" id="aBvddjIr1"></path><path d="M554.31 615.02C553.21 615.02 552.31 613.97 552.3 612.68C552.3 610.43 552.3 599.22 552.3 579.04L553.64 579.04C553.64 599.22 553.64 610.43 553.64 612.68C553.65 613.11 553.94 613.46 554.31 613.46C558.4 613.46 591.1 613.46 595.19 613.46C595.56 613.46 595.86 613.11 595.86 612.68C595.86 610.43 595.86 599.22 595.86 579.04L597.2 579.04C597.2 599.22 597.2 610.43 597.2 612.68C597.2 613.97 596.3 615.02 595.19 615.02C587.01 615.02 558.4 615.02 554.31 615.02Z" id="b2ff5OvEOK"></path><path d="M603.9 565.74C604.79 565.74 605.24 566.26 605.24 567.31C605.24 576.69 605.24 581.91 605.24 582.95C605.24 583.99 604.79 584.52 603.9 584.52C573.75 584.52 556.99 584.52 553.64 584.52C552.75 584.52 552.3 583.99 552.3 582.95C552.3 573.57 552.3 568.35 552.3 567.31C552.3 566.26 552.75 565.74 553.64 565.74C583.8 565.74 600.55 565.74 603.9 565.74Z" id="k4i8Fawa6o"></path><path d="M549.29 579.82C548.18 579.82 547.28 578.77 547.28 577.48C547.28 575.91 547.28 563.4 547.28 561.83C547.28 560.54 548.18 559.49 549.29 559.48C554.31 559.48 594.52 559.48 599.54 559.48C600.65 559.49 601.55 560.54 601.55 561.83C601.55 563.4 601.55 575.91 601.55 577.48C601.55 578.77 600.65 579.82 599.54 579.82C589.49 579.82 554.31 579.82 549.29 579.82ZM549.29 561.05C548.92 561.05 548.62 561.4 548.62 561.83C548.62 563.4 548.62 575.91 548.62 577.48C548.62 577.91 548.92 578.26 549.29 578.26C554.31 578.26 594.52 578.26 599.54 578.26C599.91 578.26 600.21 577.91 600.21 577.48C600.21 575.91 600.21 563.4 600.21 561.83C600.21 561.4 599.91 561.05 599.54 561.05C589.49 561.05 559.34 561.05 549.29 561.05Z" id="c1d5RFaK6J"></path><path d="M573.08 518.81C571.29 504.8 570.82 490.61 571.67 476.48C571.77 474.92 572.23 467.13 573.08 453.1C573.08 453.1 573.08 453.1 573.08 453.1C565.34 471.07 567.09 494.71 573.08 518.81C573.08 518.81 573.08 518.81 573.08 518.81Z" id="b4Tz1Q2l5q"></path><path d="M579.11 522.72C578.25 514.36 578.02 505.93 578.43 497.52C578.48 496.6 578.7 491.96 579.11 483.61C579.11 483.61 579.11 483.61 579.11 483.61C575.39 494.3 576.23 508.38 579.11 522.72C579.11 522.72 579.11 522.72 579.11 522.72Z" id="f9EUbwzoRJ"></path></defs><g><g><g><use xlink:href="#cNT955Wj1" opacity="1" fill="#ffb8b8" fill-opacity="1"></use><g><use xlink:href="#cNT955Wj1" opacity="1" fill-opacity="0" stroke="#000000" stroke-width="1" stroke-opacity="0"></use></g></g><g><use xlink:href="#d1fu8mty7y" opacity="1" fill="#ffb8b8" fill-opacity="1"></use><g><use xlink:href="#d1fu8mty7y" opacity="1" fill-opacity="0" stroke="#000000" stroke-width="1" stroke-opacity="0"></use></g></g><g><use xlink:href="#aMrJjYXum" opacity="1" fill="#d0cde1" fill-opacity="1"></use><g><use xlink:href="#aMrJjYXum" opacity="1" fill-opacity="0" stroke="#000000" stroke-width="1" stroke-opacity="0"></use></g></g><g><use xlink:href="#awqmemVk3" opacity="1" fill="#a0616a" fill-opacity="1"></use><g><use xlink:href="#awqmemVk3" opacity="1" fill-opacity="0" stroke="#000000" stroke-width="1" stroke-opacity="0"></use></g></g><g><use xlink:href="#p3KFkrVL6S" opacity="1" fill="#2f2e41" fill-opacity="1"></use><g><use xlink:href="#p3KFkrVL6S" opacity="1" fill-opacity="0" stroke="#000000" stroke-width="1" stroke-opacity="0"></use></g></g><g><use xlink:href="#a1Q89HpBDC" opacity="1" fill="#d0cde1" fill-opacity="1"></use><g><use xlink:href="#a1Q89HpBDC" opacity="1" fill-opacity="0" stroke="#000000" stroke-width="1" stroke-opacity="0"></use></g></g><g><use xlink:href="#e1EZ3MFXqL" opacity="1" fill="#a0616a" fill-opacity="1"></use><g><use xlink:href="#e1EZ3MFXqL" opacity="1" fill-opacity="0" stroke="#000000" stroke-width="1" stroke-opacity="0"></use></g></g><g><use xlink:href="#e1Fbxth7CG" opacity="1" fill="#d0cde1" fill-opacity="1"></use><g><use xlink:href="#e1Fbxth7CG" opacity="1" fill-opacity="0" stroke="#000000" stroke-width="1" stroke-opacity="0"></use></g></g><g><use xlink:href="#aCxnXuOso" opacity="1" fill="#6c63ff" fill-opacity="1"></use><g><use xlink:href="#aCxnXuOso" opacity="1" fill-opacity="0" stroke="#000000" stroke-width="1" stroke-opacity="0"></use></g></g><g><use xlink:href="#b7GKkaWLd" opacity="1" fill="#3f3d56" fill-opacity="1"></use><g><use xlink:href="#b7GKkaWLd" opacity="1" fill-opacity="0" stroke="#000000" stroke-width="1" stroke-opacity="0"></use></g></g><g><use xlink:href="#a7p86Vt9p" opacity="1" fill="#3f3d56" fill-opacity="1"></use><g><use xlink:href="#a7p86Vt9p" opacity="1" fill-opacity="0" stroke="#000000" stroke-width="1" stroke-opacity="0"></use></g></g><g><use xlink:href="#bEZElhBqh" opacity="1" fill="#3f3d56" fill-opacity="1"></use><g><use xlink:href="#bEZElhBqh" opacity="1" fill-opacity="0" stroke="#000000" stroke-width="1" stroke-opacity="0"></use></g></g><g><use xlink:href="#erkhRnOLP" opacity="1" fill="#000000" fill-opacity="0"></use><g><use xlink:href="#erkhRnOLP" opacity="1" fill-opacity="0" stroke="#d0cde1" stroke-width="2" stroke-opacity="1"></use></g></g><g><use xlink:href="#aTAD8yT0f" opacity="1" fill="#d0cde1" fill-opacity="1"></use><g><use xlink:href="#aTAD8yT0f" opacity="1" fill-opacity="0" stroke="#000000" stroke-width="1" stroke-opacity="0"></use></g></g><g><use xlink:href="#d3PlikFRP" opacity="1" fill="#d0cde1" fill-opacity="1"></use><g><use xlink:href="#d3PlikFRP" opacity="1" fill-opacity="0" stroke="#000000" stroke-width="1" stroke-opacity="0"></use></g></g><g><use xlink:href="#a15fSdcVYj" opacity="1" fill="#3f3d56" fill-opacity="1"></use><g><use xlink:href="#a15fSdcVYj" opacity="1" fill-opacity="0" stroke="#000000" stroke-width="1" stroke-opacity="0"></use></g></g><g><use xlink:href="#b58lL09qd7" opacity="1" fill="#d0cde1" fill-opacity="1"></use><g><use xlink:href="#b58lL09qd7" opacity="1" fill-opacity="0" stroke="#000000" stroke-width="1" stroke-opacity="0"></use></g></g><g><use xlink:href="#ceg4pQcyS" opacity="1" fill="#3f3d56" fill-opacity="1"></use><g><use xlink:href="#ceg4pQcyS" opacity="1" fill-opacity="0" stroke="#000000" stroke-width="1" stroke-opacity="0"></use></g></g><g><g><use xlink:href="#a42bUq6wzn" opacity="1" fill="#3f3d56" fill-opacity="1"></use><g><use xlink:href="#a42bUq6wzn" opacity="1" fill-opacity="0" stroke="#000000" stroke-width="1" stroke-opacity="0"></use></g></g><g><use xlink:href="#biValjGL" opacity="1" fill="#d0cde1" fill-opacity="1"></use><g><use xlink:href="#biValjGL" opacity="1" fill-opacity="0" stroke="#000000" stroke-width="1" stroke-opacity="0"></use></g></g><g><use xlink:href="#adpczavio" opacity="1" fill="#d0cde1" fill-opacity="1"></use><g><use xlink:href="#adpczavio" opacity="1" fill-opacity="0" stroke="#000000" stroke-width="1" stroke-opacity="0"></use></g></g><g><use xlink:href="#b2NgRglCBo" opacity="1" fill="#d0cde1" fill-opacity="1"></use><g><use xlink:href="#b2NgRglCBo" opacity="1" fill-opacity="0" stroke="#000000" stroke-width="1" stroke-opacity="0"></use></g></g><g><use xlink:href="#c14iOsfRvU" opacity="1" fill="#000000" fill-opacity="1"></use><g><use xlink:href="#c14iOsfRvU" opacity="1" fill-opacity="0" stroke="#000000" stroke-width="1" stroke-opacity="0"></use></g></g><g><use xlink:href="#c10Evk9poj" opacity="1" fill="#6c63ff" fill-opacity="1"></use><g><use xlink:href="#c10Evk9poj" opacity="1" fill-opacity="0" stroke="#000000" stroke-width="1" stroke-opacity="0"></use></g></g><g><use xlink:href="#bHOOCbOa6" opacity="1" fill="#6c63ff" fill-opacity="1"></use><g><use xlink:href="#bHOOCbOa6" opacity="1" fill-opacity="0" stroke="#000000" stroke-width="1" stroke-opacity="0"></use></g></g><g><use xlink:href="#ezyp6wLIh" opacity="1" fill="#6c63ff" fill-opacity="1"></use><g><use xlink:href="#ezyp6wLIh" opacity="1" fill-opacity="0" stroke="#000000" stroke-width="1" stroke-opacity="0"></use></g></g><g><use xlink:href="#aviZmt5MR" opacity="1" fill="#3f3d56" fill-opacity="1"></use><g><use xlink:href="#aviZmt5MR" opacity="1" fill-opacity="0" stroke="#000000" stroke-width="1" stroke-opacity="0"></use></g></g><g><use xlink:href="#b8MhV62LG" opacity="1" fill="#3f3d56" fill-opacity="1"></use><g><use xlink:href="#b8MhV62LG" opacity="1" fill-opacity="0" stroke="#000000" stroke-width="1" stroke-opacity="0"></use></g></g><g><use xlink:href="#b5RjxmkZrd" opacity="1" fill="#3f3d56" fill-opacity="1"></use><g><use xlink:href="#b5RjxmkZrd" opacity="1" fill-opacity="0" stroke="#000000" stroke-width="1" stroke-opacity="0"></use></g></g></g><g><g><use xlink:href="#a2Q2hw29FF" opacity="1" fill="#3f3d56" fill-opacity="1"></use><g><use xlink:href="#a2Q2hw29FF" opacity="1" fill-opacity="0" stroke="#000000" stroke-width="1" stroke-opacity="0"></use></g></g><g><use xlink:href="#ayknsGv9n" opacity="1" fill="#d0cde1" fill-opacity="1"></use><g><use xlink:href="#ayknsGv9n" opacity="1" fill-opacity="0" stroke="#000000" stroke-width="1" stroke-opacity="0"></use></g></g><g><use xlink:href="#adf9EjwN7" opacity="1" fill="#6c63ff" fill-opacity="1"></use><g><use xlink:href="#adf9EjwN7" opacity="1" fill-opacity="0" stroke="#000000" stroke-width="1" stroke-opacity="0"></use></g></g><g><use xlink:href="#ba6IDU9N7" opacity="1" fill="#6c63ff" fill-opacity="1"></use><g><use xlink:href="#ba6IDU9N7" opacity="1" fill-opacity="0" stroke="#000000" stroke-width="1" stroke-opacity="0"></use></g></g><g><use xlink:href="#a1uisQE64T" opacity="1" fill="#6c63ff" fill-opacity="1"></use><g><use xlink:href="#a1uisQE64T" opacity="1" fill-opacity="0" stroke="#000000" stroke-width="1" stroke-opacity="0"></use></g></g><g><use xlink:href="#fRqMgcdae" opacity="1" fill="#3f3d56" fill-opacity="1"></use><g><use xlink:href="#fRqMgcdae" opacity="1" fill-opacity="0" stroke="#000000" stroke-width="1" stroke-opacity="0"></use></g></g><g><use xlink:href="#cNVpzFH1" opacity="1" fill="#d0cde1" fill-opacity="1"></use><g><use xlink:href="#cNVpzFH1" opacity="1" fill-opacity="0" stroke="#000000" stroke-width="1" stroke-opacity="0"></use></g></g><g><use xlink:href="#a392VG4GXE" opacity="1" fill="#3f3d56" fill-opacity="1"></use><g><use xlink:href="#a392VG4GXE" opacity="1" fill-opacity="0" stroke="#000000" stroke-width="1" stroke-opacity="0"></use></g></g><g><use xlink:href="#cczSYf4Kz" opacity="1" fill="#d0cde1" fill-opacity="1"></use><g><use xlink:href="#cczSYf4Kz" opacity="1" fill-opacity="0" stroke="#000000" stroke-width="1" stroke-opacity="0"></use></g></g><g><use xlink:href="#a4wCK14ta" opacity="1" fill="#3f3d56" fill-opacity="1"></use><g><use xlink:href="#a4wCK14ta" opacity="1" fill-opacity="0" stroke="#000000" stroke-width="1" stroke-opacity="0"></use></g></g></g><g><use xlink:href="#aBvddjIr1" opacity="1" fill="#3f3d56" fill-opacity="1"></use><g><use xlink:href="#aBvddjIr1" opacity="1" fill-opacity="0" stroke="#000000" stroke-width="1" stroke-opacity="0"></use></g></g><g><use xlink:href="#b2ff5OvEOK" opacity="1" fill="#3f3d56" fill-opacity="1"></use><g><use xlink:href="#b2ff5OvEOK" opacity="1" fill-opacity="0" stroke="#000000" stroke-width="1" stroke-opacity="0"></use></g></g><g><use xlink:href="#k4i8Fawa6o" opacity="1" fill="#6c63ff" fill-opacity="1"></use><g><use xlink:href="#k4i8Fawa6o" opacity="1" fill-opacity="0" stroke="#000000" stroke-width="1" stroke-opacity="0"></use></g></g><g><use xlink:href="#c1d5RFaK6J" opacity="1" fill="#3f3d56" fill-opacity="1"></use><g><use xlink:href="#c1d5RFaK6J" opacity="1" fill-opacity="0" stroke="#000000" stroke-width="1" stroke-opacity="0"></use></g></g><g><use xlink:href="#b4Tz1Q2l5q" opacity="1" fill="#d0cde1" fill-opacity="1"></use><g><use xlink:href="#b4Tz1Q2l5q" opacity="1" fill-opacity="0" stroke="#000000" stroke-width="1" stroke-opacity="0"></use></g></g><g><use xlink:href="#f9EUbwzoRJ" opacity="1" fill="#d0cde1" fill-opacity="1"></use><g><use xlink:href="#f9EUbwzoRJ" opacity="1" fill-opacity="0" stroke="#000000" stroke-width="1" stroke-opacity="0"></use></g></g></g></g></svg>